<?xml version="1.0" standalone="no"?>
<!DOCTYPE svg PUBLIC "-//W3C//DTD SVG 20010904//EN"
 "http://www.w3.org/TR/2001/REC-SVG-20010904/DTD/svg10.dtd">
<svg version="1.0" xmlns="http://www.w3.org/2000/svg"
 width="208.000000pt" height="450.000000pt" viewBox="0 0 208.000000 450.000000"
 preserveAspectRatio="xMidYMid meet">
<metadata>
Created by potrace 1.10, written by Peter Selinger 2001-2011
</metadata>
<g transform="translate(0.000000,450.000000) scale(0.100000,-0.100000)"
fill="#000000" stroke="none">
<path d="M945 4098 c-16 -6 -42 -21 -56 -34 -14 -14 -28 -21 -32 -17 -4 3 -7
0 -7 -8 0 -8 -10 -23 -21 -33 -19 -16 -21 -24 -15 -88 5 -48 4 -74 -5 -84 -16
-19 -5 -92 20 -139 16 -30 20 -33 25 -18 3 10 4 -10 2 -44 -3 -76 -13 -89
-115 -144 -42 -22 -90 -54 -106 -70 -25 -24 -40 -29 -78 -29 -128 0 -219 -115
-221 -275 -1 -66 -6 -89 -29 -135 -18 -37 -30 -82 -36 -135 -6 -50 -22 -114
-45 -172 -56 -143 -72 -259 -57 -418 6 -71 9 -139 6 -150 -3 -11 -2 -72 3
-136 10 -123 31 -183 74 -213 43 -30 166 -11 153 23 -4 9 -9 22 -12 29 -3 8 3
11 18 10 21 -3 24 1 23 28 -3 72 -34 145 -81 190 -45 44 -45 46 -39 92 3 26
30 96 58 156 48 101 52 117 59 210 4 56 12 114 18 129 15 38 13 46 -4 23 -8
-11 -15 -16 -15 -10 0 5 20 32 44 59 46 53 69 93 80 138 9 39 20 33 36 -20 10
-36 29 -63 74 -107 43 -41 54 -56 37 -51 l-23 7 27 -46 c15 -25 25 -51 23 -58
-3 -7 -25 26 -51 72 -46 85 -61 96 -31 25 12 -28 14 -67 12 -166 -2 -71 -1
-129 0 -129 2 0 15 9 29 20 47 37 104 20 197 -56 32 -25 59 -44 61 -42 3 2
-10 22 -28 43 -17 22 -25 35 -17 31 8 -5 4 4 -10 20 -14 15 -17 22 -7 15 9 -8
20 -11 24 -8 8 9 -17 38 -27 32 -4 -3 -10 2 -13 10 -4 10 -1 12 11 9 9 -3 1 8
-18 26 -19 17 -28 28 -20 24 13 -7 13 -6 0 10 -13 16 -12 20 5 32 10 8 13 14
7 14 -7 0 -12 4 -12 9 0 4 23 3 52 -2 29 -6 47 -12 41 -14 -16 -6 -3 -44 21
-66 l21 -18 -25 7 c-22 5 -23 4 -9 -7 14 -12 27 -52 56 -164 7 -30 7 -30 11
10 5 53 -8 225 -17 222 -4 -1 -20 13 -36 31 -25 28 -37 33 -74 34 -70 1 -98
-54 -64 -126 l20 -41 -63 3 c-74 4 -85 19 -48 59 25 27 26 32 20 106 -7 84
-22 125 -59 154 -12 10 -38 44 -56 76 -32 57 -61 83 -76 69 -4 -4 -5 7 -1 23
3 17 9 53 12 80 6 49 5 51 -35 88 -35 32 -52 40 -81 39 -3 0 -20 -3 -37 -7
-31 -6 -33 -5 -33 23 0 16 6 29 13 30 43 4 72 20 112 60 52 51 54 67 4 25 -32
-27 -32 -17 -1 20 26 29 0 19 -36 -15 -26 -25 -32 -28 -23 -11 6 12 16 25 21
28 6 3 10 11 10 17 0 19 -31 -15 -60 -65 -16 -28 -31 -44 -35 -38 -10 17 4 52
37 95 29 36 29 37 7 26 l-24 -13 24 26 c28 30 71 52 124 61 41 8 50 -5 15 -22
-19 -8 -14 -10 27 -6 39 4 57 1 83 -15 39 -25 43 -46 7 -37 -14 4 -25 2 -25
-4 0 -5 12 -10 28 -10 19 0 23 -3 13 -9 -11 -7 -11 -9 0 -14 10 -4 10 -6 2 -6
-7 -1 -13 -7 -13 -14 0 -16 -84 -71 -88 -58 -2 6 -14 4 -28 -5 -27 -18 -33 -8
-7 12 34 24 2 28 -42 5 -62 -33 -65 -50 -9 -43 41 4 44 3 44 -19 0 -52 27
-104 70 -134 36 -26 50 -30 109 -30 60 0 67 -2 63 -18 -2 -10 -7 -15 -10 -12
-7 7 -32 -52 -32 -76 0 -15 4 -14 28 9 15 15 26 30 24 35 -2 4 2 7 8 7 6 0 9
4 6 8 -5 8 45 52 58 52 3 0 14 -17 25 -39 19 -36 19 -39 3 -62 -23 -33 -64
-68 -81 -69 -11 0 -11 3 0 16 12 15 11 16 -11 10 -24 -7 -24 -6 -6 8 11 9 24
16 29 16 4 0 6 4 3 9 -9 14 -66 -11 -66 -28 0 -8 8 -23 17 -33 15 -17 15 -20
-10 -46 -32 -34 -33 -45 -7 -82 41 -57 124 -56 160 3 26 41 25 85 0 112 l-21
22 22 37 c15 27 20 45 15 68 -5 27 -1 37 26 64 l32 31 30 -31 c23 -25 29 -39
27 -68 -1 -22 5 -50 15 -67 16 -28 16 -30 -4 -56 -23 -29 -29 -70 -12 -80 6
-4 8 -10 5 -15 -7 -11 52 -55 84 -63 31 -8 82 22 101 58 13 24 11 28 -18 58
-18 18 -32 36 -32 39 0 4 14 20 31 36 38 36 35 59 -16 126 -35 47 -36 57 -1
31 28 -21 89 -19 146 6 57 24 76 52 32 47 -15 -2 -36 -9 -47 -15 -11 -5 -42
-13 -70 -16 l-50 -6 30 24 c17 14 25 25 19 25 -6 0 -17 -6 -24 -14 -6 -8 -18
-12 -26 -9 -12 4 -9 10 13 25 27 19 27 19 3 13 -14 -4 -29 -11 -34 -16 -13
-12 -29 -11 -21 1 3 6 -3 10 -15 10 -20 0 -20 1 -3 28 16 25 16 26 1 14 -16
-13 -17 -10 -14 37 3 58 38 116 86 144 30 18 30 18 39 -5 6 -17 5 -25 -8 -30
-13 -5 -13 -7 4 -7 15 -1 17 -3 7 -10 -10 -6 -6 -10 15 -15 l28 -8 -25 -13
c-25 -14 -25 -14 -2 -15 26 0 27 -8 6 -38 -18 -27 -9 -28 31 -3 28 16 33 17
63 3 35 -17 42 -32 15 -32 -16 -1 -16 -2 1 -15 19 -14 18 -15 -10 -15 -21 0
-25 -3 -15 -9 11 -7 10 -10 -5 -14 -15 -4 -13 -5 6 -6 38 -2 46 -12 59 -66 6
-27 14 -61 17 -74 5 -17 4 -22 -4 -17 -20 12 -49 -12 -72 -59 -12 -24 -42 -68
-68 -96 -45 -50 -45 -52 -47 -123 -1 -40 -5 -78 -9 -84 -3 -6 6 -24 20 -41 36
-44 27 -58 -41 -63 -31 -1 -59 0 -61 4 -3 4 0 18 7 30 19 36 22 91 6 113 -30
40 -127 14 -158 -43 -9 -16 -15 -19 -21 -10 -4 7 -7 -45 -7 -117 1 -97 3 -118
9 -84 4 25 16 61 25 80 14 26 15 34 5 37 -8 3 -4 10 11 19 13 8 16 12 6 9 -17
-5 -16 -3 3 23 12 18 16 32 10 36 -20 12 -9 23 29 29 22 3 46 9 55 12 11 4 16
1 16 -11 0 -9 -4 -14 -8 -11 -5 3 -9 -1 -9 -9 0 -8 3 -14 6 -13 21 2 22 -4 5
-18 -10 -8 -12 -13 -4 -9 8 3 -1 -7 -20 -24 -19 -17 -31 -31 -26 -31 4 0 -2
-13 -14 -30 -23 -32 -20 -36 11 -19 19 9 19 9 7 -13 -7 -13 -24 -35 -37 -50
-40 -45 -15 -44 34 1 82 75 160 98 207 62 l24 -19 -3 124 c-3 104 0 132 17
176 11 28 18 53 16 56 -2 2 -23 -33 -47 -77 -24 -45 -46 -81 -51 -81 -12 0
-11 3 18 54 27 48 26 53 -7 36 -30 -16 -22 4 9 22 47 29 92 83 116 142 l23 57
17 -53 c10 -29 31 -70 47 -90 43 -54 59 -109 68 -226 7 -93 12 -111 49 -185
52 -103 72 -160 72 -205 0 -29 -9 -45 -44 -82 -38 -38 -48 -57 -65 -124 -11
-44 -18 -84 -15 -88 3 -5 15 -6 26 -2 18 5 19 3 13 -25 -6 -27 -3 -32 22 -42
33 -14 48 -14 100 0 81 22 97 97 108 491 l7 235 -52 150 c-32 93 -54 178 -59
225 -8 73 -19 110 -50 159 -10 16 -15 53 -16 110 -2 99 -23 157 -76 210 -41
42 -86 61 -139 61 -31 0 -51 8 -82 33 -22 17 -74 50 -116 72 -95 49 -115 80
-98 148 6 24 16 50 22 58 15 19 34 77 34 105 0 13 -7 27 -15 32 -13 7 -14 20
-7 79 7 64 6 72 -12 90 -12 11 -29 32 -39 46 -30 45 -143 69 -212 45z m143
-50 c21 -6 42 -24 59 -49 22 -34 25 -46 20 -89 -4 -33 -1 -62 8 -84 25 -58
-15 -133 -61 -116 -13 5 -24 8 -24 6 0 -3 -13 9 -29 25 -32 32 -62 37 -80 15
-7 -8 -31 -24 -54 -35 l-41 -20 -19 20 c-14 15 -19 34 -18 62 6 194 6 195 31
222 56 60 113 72 208 43z m-48 -331 c0 -21 35 -107 43 -107 2 0 3 20 2 45 -2
62 14 52 37 -23 23 -77 66 -122 163 -174 103 -55 101 -53 82 -72 -9 -10 -35
-17 -64 -17 -26 -1 -37 -4 -24 -6 l23 -5 -23 -12 c-13 -6 -50 -18 -81 -26 -66
-15 -76 -30 -20 -30 l37 0 -27 -23 c-29 -24 -58 -76 -58 -103 0 -55 -24 -147
-44 -165 l-21 -20 -8 30 c-5 22 -3 40 8 62 18 34 14 49 -9 30 -21 -18 -27 2
-10 35 20 37 25 64 13 64 -5 0 -9 -4 -9 -10 0 -5 -4 -10 -10 -10 -5 0 -3 19 5
43 11 30 11 37 2 26 -11 -15 -13 -11 -15 27 -1 38 2 46 26 61 15 10 33 24 41
32 13 11 11 13 -15 7 -41 -9 -52 3 -62 64 l-9 55 -7 -40 c-14 -75 -23 -87 -57
-80 -29 7 -30 6 -20 -14 7 -12 21 -21 32 -21 20 0 39 -34 39 -68 0 -15 -2 -15
-11 -2 -9 12 -10 10 -6 -8 5 -23 5 -23 -14 -6 -10 9 -19 13 -19 7 0 -5 9 -18
20 -28 19 -18 29 -62 11 -51 -13 8 -21 -20 -10 -31 13 -13 20 -53 8 -53 -5 0
-9 5 -9 12 0 9 -3 9 -11 1 -8 -8 -6 -24 5 -57 19 -55 19 -59 6 -51 -5 3 -10 0
-10 -8 0 -7 -7 -14 -15 -14 -16 0 -45 81 -45 127 0 55 -30 128 -63 154 l-32
26 38 0 c20 0 37 4 37 9 0 5 -17 12 -37 16 -21 3 -56 14 -78 25 -36 17 -37 18
-15 23 14 2 -1 5 -34 6 -52 1 -57 3 -46 17 8 8 9 14 4 12 -5 -2 -11 1 -14 6
-3 5 31 29 75 53 44 24 91 54 103 66 30 28 68 102 77 150 4 20 12 37 17 37 6
0 7 -8 4 -17 -4 -9 -2 -19 4 -23 8 -5 8 -15 0 -35 -6 -15 -9 -30 -6 -32 8 -8
39 60 45 96 7 40 28 52 34 19 4 -20 4 -19 6 5 1 33 21 27 21 -6z m127 -64 c-3
-10 -5 -2 -5 17 0 19 2 27 5 18 2 -10 2 -26 0 -35z m371 -297 c29 -15 81 -66
68 -66 -5 0 -1 -11 8 -25 9 -14 14 -31 10 -37 -4 -6 -3 -8 3 -5 15 9 21 -13
13 -43 -3 -14 -2 -33 4 -42 17 -28 -5 -42 -46 -30 -41 11 -73 1 -113 -38 l-30
-29 3 55 4 56 50 -5 c38 -4 50 -2 55 10 4 11 14 13 35 9 27 -5 29 -4 22 17 -9
28 -35 66 -65 92 -20 18 -20 16 4 -20 40 -59 33 -64 -14 -11 -22 25 -46 46
-52 46 -8 0 -8 -3 0 -11 6 -6 9 -17 6 -24 -2 -7 5 -16 16 -20 12 -3 19 -11 15
-16 -3 -6 2 -19 12 -30 27 -30 13 -31 -39 -3 -47 25 -88 24 -53 -1 30 -23 -37
-11 -75 13 -41 25 -66 78 -40 85 10 3 8 5 -7 6 -32 1 -24 20 19 43 25 14 47
18 84 15 49 -5 49 -5 20 8 l-30 14 43 1 c24 0 55 -6 70 -14z m-743 -98 c41
-32 99 -163 63 -142 -9 5 -9 2 1 -9 12 -15 11 -17 -4 -17 -9 0 -15 -6 -13 -12
3 -7 -1 -19 -9 -26 -7 -8 -10 -19 -7 -25 5 -8 2 -8 -7 1 -7 6 -20 12 -28 12
-14 0 -14 -2 -1 -10 8 -5 11 -12 7 -16 -8 -8 -39 15 -33 25 3 4 -5 7 -17 8
-19 1 -18 -2 13 -29 l35 -30 -40 6 c-77 13 -95 18 -95 27 0 5 -17 10 -37 10
-38 1 -38 1 -8 9 17 4 24 8 18 9 -7 0 -13 7 -13 15 0 7 -10 20 -22 28 -21 14
-21 14 15 37 l37 23 26 -21 c33 -26 48 -27 34 -2 -15 30 -12 41 13 42 22 1 22
1 -2 8 -22 6 -22 7 -7 20 13 11 14 16 4 22 -9 6 -5 9 12 9 17 0 21 3 12 8 -15
10 -5 42 13 42 7 0 25 -10 40 -22z m-306 -194 c27 -20 53 -76 45 -98 -3 -9
-10 -14 -14 -11 -4 2 -10 -22 -13 -54 -3 -33 -10 -67 -17 -78 -10 -15 -10 -14
-6 12 5 25 2 22 -17 -15 -21 -42 -37 -63 -45 -56 -1 2 4 36 13 75 9 39 15 77
12 84 -4 12 -37 -84 -37 -109 0 -15 -34 -36 -44 -27 -3 3 -3 17 1 31 4 19 3
23 -7 17 -10 -6 -11 1 -5 31 4 21 9 50 12 64 2 14 11 35 19 47 18 29 18 39 -1
23 -17 -14 -54 -93 -56 -119 -1 -9 -4 -2 -8 14 -4 17 -2 46 3 65 13 41 75 107
108 113 13 2 25 5 28 6 3 0 16 -6 29 -15z m1144 -14 c44 -34 67 -76 72 -127
l4 -48 -16 30 c-59 114 -92 152 -53 61 20 -47 38 -174 21 -147 -7 11 -10 10
-13 -8 -6 -40 -23 -23 -43 43 -11 35 -24 68 -28 73 -10 9 0 -53 19 -117 7 -24
12 -45 10 -47 -1 -2 -13 7 -27 20 -13 12 -27 21 -31 20 -8 -3 -28 62 -28 92 0
11 -7 34 -16 50 -18 34 -12 79 13 107 22 25 83 24 116 -2z m-467 -34 c16 -17
18 -26 4 -26 -5 0 -14 9 -20 20 -12 23 -5 26 16 6z m-300 -11 c-11 -8 -24 -15
-30 -15 -5 0 -1 7 10 15 10 8 24 14 29 14 6 0 1 -6 -9 -14z m304 -57 c16 -11
27 -25 24 -30 -3 -4 0 -8 7 -8 7 0 9 -3 6 -7 -4 -3 7 -14 23 -24 43 -27 37
-41 -10 -24 -45 16 -50 12 -17 -16 19 -16 19 -18 3 -12 -15 5 -18 3 -13 -10
10 -27 -10 -20 -49 16 -39 35 -44 61 -25 110 13 33 14 33 51 5z m-811 -262
c35 -36 38 -46 15 -46 -10 0 -13 -6 -9 -19 4 -14 -1 -21 -25 -30 -18 -6 -28
-6 -25 -1 4 6 -3 10 -14 10 -10 0 -22 -6 -24 -12 -3 -7 -6 -4 -6 7 0 11 8 37
18 58 15 32 18 87 5 87 -2 0 -11 -14 -19 -31 -31 -59 -25 -22 6 47 l32 69 8
-54 c5 -40 15 -61 38 -85z m1380 83 c22 -53 28 -87 10 -56 -5 9 -15 17 -20 17
-14 0 -6 -46 15 -94 17 -38 13 -66 -5 -33 -13 23 -25 22 -32 -5 -6 -20 -7 -20
-29 -6 -13 9 -22 24 -21 33 0 10 -4 14 -13 11 -23 -9 -16 10 21 54 28 34 35
50 35 86 0 24 4 44 9 44 4 0 18 -23 30 -51z m-819 -13 c-1 -5 4 -13 12 -17 11
-7 11 -9 -1 -9 -8 0 -11 -7 -8 -19 3 -14 1 -18 -9 -14 -17 6 -18 -9 -2 -25 16
-16 -28 -8 -48 9 -8 7 -18 9 -22 5 -4 -4 1 -13 11 -20 29 -22 19 -28 -13 -9
-16 9 -30 26 -30 36 0 14 -5 17 -20 12 -11 -4 -20 -2 -20 4 0 6 6 11 13 11 6
0 35 12 62 25 49 25 77 29 75 11z m256 -11 c27 -14 54 -25 61 -25 6 0 15 -5
19 -12 5 -8 0 -9 -14 -6 -12 4 -22 2 -22 -3 0 -11 -52 -59 -64 -59 -5 0 -2 8
7 18 25 28 20 34 -12 18 -26 -14 -29 -14 -27 2 1 12 -5 16 -19 14 -11 -2 -16
1 -10 5 13 11 17 33 6 33 -7 0 -8 17 -2 38 3 8 34 -1 77 -23z m464 -26 c-16
-36 -40 -37 -62 -2 l-17 28 42 10 c48 12 54 6 37 -36z m-1192 2 c-13 -14 -23
-27 -24 -29 -4 -10 -33 13 -42 33 -11 23 -9 24 31 27 57 4 62 0 35 -31z m-233
-216 c-14 -48 -25 -98 -25 -111 0 -12 -4 -26 -10 -29 -13 -8 -12 4 1 85 10 65
45 158 54 148 3 -3 -6 -45 -20 -93z m1605 38 c12 -32 23 -89 26 -128 l4 -70
-28 110 c-15 61 -31 118 -35 128 -3 9 -2 17 3 17 5 0 18 -26 30 -57z m-1440 7
c-6 -11 -15 -20 -20 -20 -12 0 -31 -36 -41 -78 -6 -29 -4 -38 17 -59 13 -13
24 -28 24 -33 0 -5 -18 -45 -40 -90 -41 -85 -57 -153 -45 -189 3 -12 24 -42
46 -67 36 -42 50 -74 31 -74 -5 0 -18 -9 -30 -20 -25 -24 -28 -66 -7 -94 24
-31 19 -61 -9 -61 -26 0 -25 21 2 28 10 3 6 5 -9 6 -63 3 -78 61 -85 328 -4
201 -4 212 23 321 l27 113 42 -4 c22 -2 49 0 60 4 10 4 20 8 22 8 1 1 -2 -8
-8 -19z m337 -49 c-6 -2 -15 -8 -18 -14 -9 -13 -22 50 -14 64 5 7 14 0 26 -18
14 -20 15 -29 6 -32z m619 4 c-3 -8 -13 -11 -25 -8 -20 5 -20 5 2 35 21 28 22
29 25 8 2 -12 1 -28 -2 -35z m449 -53 c18 -65 29 -131 29 -167 -3 -324 -16
-441 -50 -475 -26 -26 -84 -38 -84 -18 0 8 9 23 20 33 36 33 19 104 -26 107
-19 2 -20 5 -12 30 6 15 14 28 18 28 5 0 23 19 40 43 28 38 31 48 28 97 -3 38
-18 84 -47 147 l-44 92 27 31 c14 17 26 36 26 41 0 17 -32 89 -40 89 -4 0 -10
6 -13 13 -4 10 8 14 47 15 l53 1 28 -107z m-121 21 c29 -62 27 -76 -5 -47 -29
26 -63 104 -39 89 6 -3 10 -1 10 4 0 22 9 10 34 -46z m-1254 27 c0 -20 -56
-100 -70 -100 -12 0 -13 6 0 28 5 9 16 33 25 53 16 37 45 49 45 19z m-36 -626
c8 -31 -11 -49 -31 -32 -16 13 -17 40 -1 56 15 15 24 8 32 -24z m1314 7 c4
-28 -11 -46 -32 -38 -12 5 -13 11 -3 37 13 34 30 35 35 1z"/>
<path d="M690 2368 c-53 -36 -83 -104 -88 -201 -3 -54 -13 -109 -32 -162 -51
-147 -63 -223 -57 -363 4 -95 10 -144 27 -192 19 -56 22 -84 21 -208 -1 -127
-5 -152 -28 -220 -23 -66 -27 -93 -27 -197 -1 -103 4 -140 33 -260 33 -137 42
-235 29 -327 -10 -72 -27 -96 -85 -123 -44 -21 -54 -30 -51 -48 2 -18 15 -25
68 -39 36 -9 73 -19 83 -23 9 -4 17 -3 17 2 0 15 -45 53 -63 53 -27 0 -28 17
-1 36 34 26 55 60 61 98 2 17 8 47 14 66 15 56 11 112 -17 237 -18 80 -27 155
-29 233 -2 63 -8 137 -14 164 -10 42 -8 61 12 145 14 53 24 107 24 121 -1 14
0 52 2 85 2 43 5 53 10 35 6 -22 8 -23 14 -7 10 27 9 81 -2 92 -10 10 -41 119
-41 144 0 12 3 12 18 -1 27 -23 46 -33 38 -19 -4 7 -16 51 -26 99 -10 48 -19
75 -19 60 -1 -15 -5 -29 -10 -32 -5 -3 -6 16 -4 42 3 35 2 43 -6 32 -9 -12
-11 -11 -11 7 0 37 28 168 44 207 20 48 39 38 32 -16 l-6 -40 20 24 c22 27 27
11 5 -18 -21 -28 -18 -43 4 -16 25 29 37 28 18 -2 -9 -13 -16 -32 -15 -42 0
-11 -1 -26 -4 -34 -3 -8 -3 -12 -1 -7 3 4 8 5 13 2 5 -3 7 6 5 20 -1 14 0 23
3 20 3 -2 11 3 18 13 11 14 11 10 3 -27 -5 -24 -14 -51 -19 -61 -5 -9 -17 -58
-26 -109 -16 -86 -16 -94 1 -149 26 -85 82 -200 102 -210 22 -11 44 -5 61 16
22 29 14 -34 -14 -106 -36 -92 -44 -96 -44 -26 0 66 -16 99 -56 114 -15 6 -24
18 -25 32 -1 37 -7 60 -18 71 -8 8 -11 1 -11 -23 0 -19 -7 -70 -15 -113 -16
-86 -20 -193 -7 -201 5 -3 14 36 21 86 6 50 14 95 17 100 7 11 51 10 59 -1 3
-5 1 -12 -5 -16 -6 -4 -7 -12 -3 -18 9 -15 12 -47 3 -47 -3 0 -7 -33 -8 -72
-1 -40 -5 -81 -8 -90 -11 -36 7 -17 29 30 l21 47 4 -40 c2 -22 7 -42 11 -45
11 -7 21 -91 10 -84 -5 3 -9 -3 -10 -13 0 -25 -47 -121 -49 -103 -2 8 -6 -1
-9 -20 -5 -25 -9 0 -16 90 -5 83 -10 116 -15 99 -13 -48 -21 -203 -12 -249 l8
-45 14 33 c8 17 19 32 25 32 6 0 16 9 23 20 7 11 17 20 22 20 19 0 10 -41 -22
-97 -32 -57 -32 -58 -31 -188 2 -170 9 -335 16 -362 3 -11 13 -35 21 -52 15
-27 22 -31 59 -31 l42 0 -39 24 c-26 16 -40 32 -41 47 -2 13 -6 45 -10 70 -5
29 -3 54 4 67 9 17 8 36 -5 84 -18 69 -15 266 5 323 10 29 11 28 6 -10 l-4
-40 15 34 c39 86 47 150 40 312 l-7 156 32 79 c22 57 33 106 40 174 10 119 11
213 2 207 -5 -3 -6 19 -5 49 6 88 -17 144 -25 61 -1 -18 -5 -54 -7 -82 -2 -27
-9 -75 -15 -105 -6 -30 -15 -85 -22 -121 -7 -45 -15 -66 -25 -66 -8 0 -14 9
-14 20 0 11 -3 17 -7 13 -5 -4 -13 23 -20 61 -6 37 -11 51 -9 31 1 -21 -2 -38
-6 -38 -4 0 -8 13 -8 29 0 16 -4 31 -10 33 -20 7 -23 140 -5 213 18 73 64 173
65 142 0 -11 4 -15 12 -11 8 5 9 2 5 -9 -5 -14 -2 -16 17 -11 13 3 34 1 45 -6
12 -6 21 -9 21 -6 0 7 -93 60 -115 66 -11 4 -33 31 -50 63 -16 31 -42 70 -57
87 -30 32 -35 59 -16 93 6 12 15 62 19 111 8 93 29 145 26 65 -2 -73 49 -163
110 -193 53 -27 95 -21 139 19 22 19 42 35 47 35 4 0 13 -11 19 -25 14 -31 30
-33 24 -2 -3 12 -8 40 -11 62 -10 61 -73 174 -89 158 -3 -4 0 -13 8 -22 8 -9
15 -19 15 -23 1 -5 1 -9 2 -10 6 -19 10 -46 9 -58 0 -8 0 -24 -1 -35 0 -17 -2
-17 -17 5 -31 45 -44 33 -17 -15 15 -25 22 -45 16 -45 -6 0 -11 5 -11 10 0 5
-3 9 -7 9 -5 -1 -10 0 -13 1 -3 1 -13 3 -23 5 -14 3 -16 0 -7 -10 14 -17 -3
-54 -23 -51 -19 2 -47 31 -47 48 -1 7 -7 2 -14 -11 -13 -24 -14 -23 -26 34
-12 58 -13 58 -27 34 -8 -13 -12 -16 -9 -6 3 10 -1 31 -9 47 -14 27 -14 30 11
49 15 12 31 21 35 21 5 0 9 4 9 8 0 4 -17 6 -37 4 -26 -2 -34 0 -24 6 11 8 11
11 0 16 -8 3 -4 4 9 2 12 -2 20 0 16 5 -3 5 -13 9 -22 9 -31 0 10 20 43 20 28
1 29 2 8 10 -13 5 -23 11 -23 14 0 2 10 2 23 -1 16 -3 18 -2 9 5 -21 15 15 24
40 11 16 -8 19 -8 13 1 -7 12 -66 40 -83 40 -5 0 -24 -10 -42 -22z m-138 -830
c-9 -9 -12 1 -11 43 l1 54 11 -43 c7 -31 7 -46 -1 -54z"/>
<path d="M1265 2380 c-11 -5 -15 -9 -10 -9 6 -1 3 -6 -5 -11 -11 -8 -7 -9 15
-5 l30 6 -25 -15 -25 -15 35 -2 c28 -1 30 -3 10 -6 -14 -3 -29 -9 -34 -13 -5
-5 0 -6 12 -3 12 3 30 2 39 -2 17 -7 16 -8 -2 -15 -17 -7 -17 -9 -2 -9 9 -1
17 -5 17 -10 0 -5 8 -12 18 -15 9 -3 -2 -3 -25 -1 -43 5 -59 -8 -25 -19 22 -7
70 -56 56 -56 -6 0 -15 5 -20 10 -8 8 -11 0 -12 -23 -1 -18 -6 -44 -12 -58
-10 -23 -10 -23 -7 7 2 18 -2 31 -8 31 -7 0 -9 -12 -7 -29 3 -17 -1 -41 -9
-54 l-13 -25 -14 23 c-7 13 -11 16 -9 8 2 -8 -5 -24 -16 -35 -20 -20 -20 -20
-13 8 6 24 5 27 -8 15 -7 -7 -11 -17 -8 -22 3 -5 0 -6 -6 -2 -7 4 -12 1 -12
-6 0 -9 -3 -9 -10 2 -5 8 -9 22 -9 30 0 10 3 8 9 -5 6 -13 9 -15 9 -5 0 8 -3
21 -8 29 -7 11 -11 10 -20 -7 -22 -41 -14 -60 30 -72 38 -10 44 -9 81 16 37
26 78 73 78 90 0 4 9 27 21 51 19 40 20 44 4 59 -13 14 -14 19 -3 25 18 12 38
-54 31 -103 -3 -23 2 -58 16 -98 16 -45 19 -66 11 -75 -8 -9 -5 -22 9 -46 33
-59 71 -273 40 -229 -8 11 -9 1 -5 -37 7 -53 -9 -86 -17 -36 -3 20 -4 15 -6
-15 0 -26 -5 -41 -11 -37 -6 4 -10 -8 -10 -29 0 -20 -4 -36 -10 -36 -5 0 -10
18 -10 39 0 42 -23 151 -41 198 -15 40 -19 64 -9 58 16 -10 21 14 9 37 -11 21
-11 22 4 9 10 -7 17 -10 17 -6 0 4 6 2 14 -4 11 -9 16 -9 22 0 4 7 3 9 -4 5
-6 -3 -16 2 -21 13 -16 29 -13 38 4 15 15 -18 15 -18 8 0 -4 13 -3 17 5 12 7
-4 12 -3 12 3 0 5 -5 13 -10 16 -6 4 -8 15 -5 26 4 10 2 19 -4 19 -13 0 -41
-41 -35 -52 3 -4 1 -8 -4 -8 -10 0 -38 -60 -34 -73 1 -4 -11 -10 -27 -13 -16
-4 -45 -23 -64 -43 -19 -20 -44 -43 -56 -51 -14 -10 -21 -28 -23 -54 -1 -21
-8 -40 -15 -43 -8 -3 -9 -11 -3 -26 5 -12 13 -95 19 -184 9 -152 12 -168 47
-253 32 -79 36 -98 30 -143 -23 -194 -17 -285 25 -386 l19 -46 -6 40 c-5 28
-3 37 4 30 6 -5 16 -58 23 -116 11 -94 10 -118 -5 -198 -14 -71 -15 -98 -7
-124 8 -24 9 -42 1 -61 -5 -15 -10 -42 -10 -61 0 -27 6 -37 36 -55 44 -28 52
-21 27 22 -17 29 -19 47 -14 153 2 66 5 178 5 250 1 122 -1 133 -27 187 -15
32 -30 72 -34 90 l-6 33 36 -34 c20 -19 42 -50 48 -68 6 -18 15 -33 21 -33 14
0 4 281 -11 306 -8 14 -10 -11 -11 -103 0 -75 -4 -123 -10 -123 -5 0 -10 11
-10 25 0 14 -6 28 -14 31 -8 3 -18 20 -22 37 -3 18 -10 37 -15 43 -5 6 -12 32
-15 57 -5 38 -4 48 10 53 11 4 16 19 17 48 l0 41 24 -50 23 -50 -4 65 c-3 36
-7 73 -9 82 -2 10 1 21 6 24 6 3 5 11 -2 20 -8 10 -8 14 0 14 6 0 11 5 11 11
0 5 -4 8 -9 4 -6 -3 -8 6 -5 22 18 97 74 8 74 -116 0 -27 4 -52 9 -55 12 -8
18 78 10 139 -4 28 -13 90 -20 138 -8 60 -15 85 -22 78 -6 -6 -11 -28 -12 -50
-1 -31 -9 -46 -38 -74 -36 -34 -41 -48 -40 -129 0 -33 -14 -19 -40 40 -30 69
-43 122 -28 122 5 0 13 -5 16 -10 20 -33 33 35 14 75 -7 15 -8 13 -3 -12 3
-17 1 -34 -4 -37 -5 -3 -15 41 -22 97 -7 55 -18 125 -25 154 -7 29 -9 50 -5
48 9 -5 6 44 -5 90 -13 51 10 16 45 -70 18 -44 35 -82 38 -85 6 -6 -4 48 -14
74 -5 12 -4 17 3 13 16 -10 9 57 -9 85 -15 23 -15 25 1 35 13 8 17 7 17 -8 0
-9 -4 -15 -8 -13 -16 10 -8 -2 14 -20 20 -18 21 -18 13 0 -4 11 -9 34 -10 53
-3 29 -2 32 11 20 23 -24 53 -122 60 -196 4 -49 1 -86 -11 -133 -21 -79 -26
-89 -37 -64 -5 13 -6 8 -2 -13 4 -22 2 -33 -6 -33 -7 0 -10 -7 -7 -15 4 -8 2
-17 -3 -20 -6 -4 -10 -15 -10 -26 0 -53 60 41 96 150 15 45 31 81 37 81 6 0
22 10 35 23 l24 22 -5 -45 c-4 -25 -10 -59 -16 -77 -5 -17 -6 -34 -3 -38 4 -4
2 -6 -3 -5 -29 6 -31 -1 -21 -62 8 -49 12 -57 17 -37 6 21 7 19 8 -11 1 -34
10 -80 25 -130 8 -24 8 -24 -7 -5 -12 14 -8 -12 13 -95 16 -63 29 -124 29
-135 -1 -17 -2 -17 -6 -2 -2 9 -9 15 -14 11 -5 -3 -7 -9 -4 -14 3 -4 0 -42 -5
-84 -7 -54 -6 -82 1 -95 9 -13 7 -36 -6 -92 -9 -41 -19 -85 -21 -99 -3 -14 -9
-50 -15 -80 -16 -76 -4 -242 21 -289 11 -23 37 -47 69 -66 28 -16 51 -32 51
-36 0 -4 15 -17 34 -28 28 -18 49 -21 137 -20 l104 0 -115 24 c-63 14 -118 25
-121 25 -4 0 -6 8 -5 17 0 9 -9 22 -20 28 -12 6 -29 17 -37 24 -9 7 -21 10
-26 7 -16 -10 -43 53 -57 133 -14 82 -3 185 39 336 31 117 31 332 -1 425 -31
88 -41 318 -17 400 8 30 22 89 31 130 27 128 5 295 -62 480 -17 49 -23 80 -19
104 8 40 -17 146 -45 192 -16 25 -75 67 -92 63 -1 0 -12 -4 -23 -9z"/>
<path d="M1091 2239 c-31 -33 -59 -101 -67 -158 -7 -56 5 -68 25 -24 10 21 14
24 21 13 7 -11 11 -11 24 -1 9 8 16 20 16 29 0 8 7 23 16 33 15 17 15 18 -4
16 -11 0 -18 -5 -16 -9 3 -4 2 -13 -2 -20 -15 -23 -22 27 -8 54 19 36 18 43
-3 27 -14 -11 -12 -6 5 24 24 42 22 47 -7 16z"/>
<path d="M1098 2059 c-17 -18 -17 -19 2 -19 11 0 20 2 20 4 0 2 3 11 6 20 8
21 -7 19 -28 -5z"/>
<path d="M986 1818 c-9 -12 -16 -27 -16 -32 0 -5 -14 -38 -31 -74 l-32 -64
-15 31 c-18 39 -27 35 -12 -5 7 -16 9 -53 6 -84 l-6 -55 15 40 14 40 -4 -35
c-2 -19 -7 -57 -10 -85 l-6 -50 17 29 c39 70 111 326 98 348 -3 4 -1 8 4 8 5
0 13 -26 16 -57 7 -55 77 -281 98 -313 6 -10 7 6 2 45 -5 33 -8 83 -9 112 0
31 -3 46 -8 37 -14 -24 -28 -16 -21 12 5 21 2 31 -17 46 l-24 20 35 -6 c27 -4
31 -3 17 5 -9 5 -29 32 -42 60 -28 54 -46 61 -69 27z m-41 -168 c-11 -38 -14
-41 -14 -17 -1 27 16 73 24 65 2 -2 -2 -24 -10 -48z"/>
<path d="M1358 1794 c-4 -5 0 -20 8 -34 7 -14 13 -18 13 -10 -1 24 -15 54 -21
44z"/>
<path d="M750 1699 c-14 -24 -12 -29 5 -23 8 4 13 10 10 14 -3 4 2 10 10 14
11 4 15 -2 15 -19 0 -14 -4 -25 -8 -25 -5 0 -8 -15 -6 -32 1 -18 -2 -48 -8
-66 -20 -67 -1 -51 28 25 17 43 27 80 23 81 -5 2 -9 8 -9 13 0 4 6 6 14 3 18
-7 30 12 14 22 -25 16 -79 12 -88 -7z"/>
<path d="M587 883 c-5 -23 -6 -72 -2 -108 5 -47 4 -65 -5 -65 -7 0 -6 -6 4
-16 9 -8 16 -21 16 -28 0 -7 10 -21 22 -32 20 -18 21 -18 15 -1 -4 10 -8 58
-8 105 -1 66 -3 77 -9 47 l-6 -40 -7 35 c-4 19 -8 60 -10 90 l-2 55 -8 -42z"/>
<path d="M1425 848 c3 -42 2 -53 -4 -33 -6 26 -9 20 -14 -40 -4 -38 -11 -91
-15 -117 -7 -40 -6 -46 5 -36 21 17 55 92 44 96 -5 2 -7 42 -4 98 4 66 3 94
-5 94 -8 0 -10 -20 -7 -62z"/>
</g>
</svg>
