<?xml version="1.0" standalone="no"?>
<!DOCTYPE svg PUBLIC "-//W3C//DTD SVG 20010904//EN"
 "http://www.w3.org/TR/2001/REC-SVG-20010904/DTD/svg10.dtd">
<svg version="1.0" xmlns="http://www.w3.org/2000/svg"
 width="190.000000pt" height="450.000000pt" viewBox="0 0 190.000000 450.000000"
 preserveAspectRatio="xMidYMid meet">
<metadata>
Created by potrace 1.10, written by Peter Selinger 2001-2011
</metadata>
<g transform="translate(0.000000,450.000000) scale(0.100000,-0.100000)"
fill="#000000" stroke="none">
<path d="M858 4416 c-95 -37 -141 -102 -142 -201 -1 -45 -5 -63 -18 -73 -10
-7 -18 -23 -18 -34 0 -41 33 -139 50 -148 13 -7 16 -21 14 -71 l-3 -62 -98
-52 c-54 -28 -114 -61 -133 -73 -19 -12 -46 -22 -60 -22 -36 0 -120 -43 -152
-76 -52 -56 -73 -119 -75 -229 -1 -83 -6 -111 -29 -164 -23 -57 -26 -74 -21
-145 4 -63 0 -94 -14 -139 -50 -151 -65 -271 -50 -409 6 -57 13 -193 15 -303
4 -226 13 -263 73 -316 46 -40 136 -84 157 -76 32 13 12 107 -24 107 -10 0
-40 74 -40 100 0 33 14 23 34 -25 22 -54 47 -72 70 -49 33 33 11 152 -45 247
-39 65 -41 73 -34 121 3 28 29 105 58 171 l51 120 1 130 c1 124 2 133 33 202
18 39 32 77 33 85 0 7 10 -12 21 -42 30 -77 34 -346 8 -431 -10 -31 -21 -96
-25 -145 -4 -49 -15 -123 -26 -164 -55 -222 -63 -500 -18 -670 29 -113 28
-315 -2 -436 -29 -116 -34 -208 -14 -274 9 -30 20 -82 25 -115 4 -33 17 -122
29 -198 36 -241 27 -287 -64 -316 -39 -12 -52 -22 -59 -44 -15 -41 -2 -54 113
-114 85 -44 112 -53 155 -53 31 0 61 6 74 16 l23 16 -6 239 c-6 266 4 366 51
514 23 69 25 91 20 166 -3 47 -11 109 -17 138 -10 47 -8 60 20 149 17 53 38
148 46 209 8 62 24 150 36 195 12 46 27 115 34 153 l11 70 8 -58 c4 -32 18
-103 32 -158 13 -55 28 -141 34 -192 13 -116 17 -137 43 -219 20 -66 20 -68 3
-205 -17 -137 -17 -139 3 -213 63 -228 71 -309 62 -691 -2 -100 10 -118 81
-126 35 -4 62 3 143 37 110 47 145 72 145 106 0 26 -39 60 -79 69 -15 3 -38
19 -49 35 -31 41 -30 167 2 331 74 373 75 390 40 526 -21 81 -21 345 0 413 22
73 46 234 46 313 0 79 -25 275 -51 392 -10 49 -19 122 -19 162 0 46 -7 93 -18
126 -27 75 -23 354 6 442 18 57 20 59 30 35 5 -14 20 -47 33 -75 20 -44 23
-67 23 -190 1 -131 3 -144 29 -205 49 -113 67 -169 73 -229 6 -54 4 -61 -29
-112 -43 -65 -75 -187 -61 -227 7 -19 16 -27 34 -27 24 0 37 16 62 80 l12 30
4 -29 c5 -38 -24 -101 -53 -114 -27 -13 -39 -43 -31 -78 8 -30 33 -31 89 -3
71 36 103 67 135 127 30 55 31 65 33 178 1 65 1 140 0 167 -1 26 5 115 14 198
17 165 11 254 -26 380 -13 46 -19 97 -19 167 0 84 -4 113 -25 168 -19 52 -25
85 -25 153 0 99 -17 144 -76 216 -40 47 -112 85 -162 85 -16 0 -42 10 -57 22
-15 12 -73 45 -129 72 l-101 51 0 62 c0 42 5 67 17 80 15 17 48 112 48 140 0
7 -8 21 -19 32 -14 14 -20 37 -23 89 -3 59 -9 78 -33 113 -17 23 -47 51 -68
62 -49 25 -150 32 -199 13z m197 -47 c40 -28 70 -79 78 -132 3 -21 -3 -91 -13
-155 -11 -64 -20 -145 -20 -180 0 -66 -13 -76 -25 -19 -4 17 -12 49 -17 70
l-11 37 -103 0 c-103 0 -104 0 -117 -27 -8 -16 -20 -49 -27 -75 -7 -27 -16
-48 -21 -48 -5 0 -8 35 -7 78 1 42 -7 127 -17 188 -16 93 -17 119 -7 152 16
54 56 100 107 124 55 26 152 20 200 -13z m-319 -275 c1 -10 2 -21 4 -24 1 -3
4 -14 6 -25 2 -11 4 -27 6 -35 2 -8 -1 -16 -7 -18 -11 -4 -46 114 -37 123 11
10 27 -2 28 -21z m434 3 c0 -32 -30 -117 -41 -117 -13 0 -11 23 7 65 8 20 10
34 5 30 -14 -8 -14 1 -1 26 14 26 30 24 30 -4z m-240 -314 c-1 -173 -3 -194
-14 -163 -7 19 -30 62 -51 95 -46 72 -44 70 -51 63 -3 -4 15 -37 40 -75 25
-37 50 -88 55 -113 6 -25 12 -176 13 -336 l3 -291 -26 51 c-14 28 -47 89 -72
136 -53 99 -87 195 -87 244 0 18 -9 63 -20 99 -17 54 -28 73 -63 100 -52 43
-99 67 -129 67 -19 0 -16 5 22 30 25 17 86 51 135 76 50 25 95 53 102 61 7 9
22 44 33 79 22 64 29 71 83 73 l27 1 0 -197z m106 184 c3 -3 11 -28 19 -57 7
-28 20 -62 29 -74 8 -13 61 -47 118 -76 57 -29 116 -62 132 -73 l29 -20 -42
-13 c-23 -7 -57 -24 -76 -38 -31 -24 -42 -26 -137 -27 -86 -1 -95 -3 -53 -9
28 -4 72 -5 98 -2 l48 5 -25 -37 c-13 -20 -30 -63 -36 -94 -30 -146 -49 -193
-169 -417 l-33 -60 4 300 c4 336 2 326 83 442 25 36 44 67 42 70 -9 8 -68 -72
-97 -131 l-30 -59 0 193 0 193 45 -6 c26 -2 48 -7 51 -10z m455 -338 c99 -50
166 -198 135 -297 -7 -20 -9 -20 -29 -7 -12 7 -56 26 -97 41 -67 25 -86 39
-173 123 -108 105 -108 103 -29 137 30 13 37 13 79 -6 101 -44 167 -123 179
-212 4 -26 11 -48 16 -48 14 0 -1 70 -28 127 -30 62 -80 108 -148 136 -46 20
-48 22 -26 28 32 9 76 1 121 -22z m-928 7 c21 -8 47 -22 58 -32 19 -18 18 -19
-73 -111 -80 -80 -103 -97 -168 -124 -41 -17 -85 -37 -98 -45 -20 -13 -23 -13
-29 1 -3 9 -3 47 0 85 15 181 153 281 310 226z m135 -129 c30 -81 36 -151 16
-189 -16 -31 -31 -47 -45 -48 -11 0 -85 54 -135 98 l-48 43 84 84 c94 95 98
95 128 12z m610 -20 l82 -83 -44 -36 c-55 -46 -136 -98 -153 -98 -7 0 -23 15
-34 33 -16 26 -19 43 -15 87 8 85 48 180 75 180 4 0 44 -37 89 -83z m-767
-139 c32 -29 77 -63 100 -75 l41 -22 -34 -21 c-45 -27 -100 -26 -133 3 -39 34
-71 167 -40 167 4 0 33 -24 66 -52z m872 16 c-1 -16 -8 -49 -14 -73 -21 -76
-106 -104 -178 -60 l-35 21 32 14 c34 14 139 91 161 118 20 24 36 14 34 -20z
m-939 -199 c0 -123 -24 -184 -106 -276 -45 -51 -64 -67 -66 -55 -2 10 8 36 23
58 26 39 27 46 23 144 -2 60 -8 108 -15 115 -25 25 -122 -103 -114 -149 1 -8
-3 -46 -10 -85 -7 -40 -14 -97 -15 -127 -1 -30 -6 -89 -12 -130 -6 -41 -11
-142 -10 -225 l1 -150 7 175 c7 181 16 257 31 276 6 7 6 21 0 36 -9 24 8 169
31 262 10 39 72 115 85 102 4 -3 9 -47 11 -96 4 -82 2 -94 -22 -140 -14 -27
-26 -61 -26 -76 0 -31 -35 -84 -56 -84 -8 0 -14 -5 -14 -11 0 -6 7 -8 16 -5
13 5 15 1 11 -16 -3 -13 -7 -117 -8 -233 -2 -115 -7 -216 -12 -222 -16 -22
-55 -16 -60 10 -4 19 -4 19 -6 -5 0 -15 2 -29 7 -32 4 -2 32 2 62 9 30 7 47
14 37 14 -18 1 -18 14 -15 234 l3 232 27 45 c16 25 51 70 79 100 47 50 51 52
43 25 -5 -16 -7 -69 -6 -116 4 -98 -6 -142 -67 -301 -33 -86 -41 -120 -41
-172 0 -37 4 -66 10 -66 30 0 104 -230 82 -252 -12 -12 -52 45 -52 72 0 9 -14
31 -31 50 -28 32 -29 32 -14 6 16 -26 16 -30 1 -38 -30 -17 -11 -102 34 -147
38 -38 40 -70 5 -66 -14 1 -34 10 -45 20 -11 10 -20 14 -20 10 0 -17 -72 60
-91 97 -17 34 -19 60 -19 240 0 112 -5 247 -12 301 -8 73 -8 120 0 190 14 115
40 206 53 186 9 -15 11 25 9 176 -1 72 3 87 33 151 36 75 64 99 143 124 21 7
43 16 49 21 19 18 50 -110 49 -206z m1041 180 c84 -30 101 -45 136 -120 27
-57 29 -67 30 -200 0 -77 4 -131 8 -121 11 29 45 -145 45 -234 0 -41 -6 -205
-13 -365 -14 -310 -15 -314 -72 -380 -24 -27 -104 -75 -125 -75 -2 0 13 17 34
38 20 20 43 56 50 79 7 22 19 46 26 52 13 11 13 18 0 53 -8 22 -15 61 -15 87
-2 34 -3 38 -6 16 -3 -16 -22 -48 -43 -71 -21 -23 -41 -55 -45 -72 -8 -37 -31
-60 -46 -45 -15 15 18 137 53 201 26 46 42 58 71 53 4 0 7 4 7 9 0 6 -8 10
-17 10 -15 0 -18 11 -21 61 -2 61 -17 110 -69 229 -26 61 -28 74 -28 200 0 74
-4 142 -9 150 -5 8 15 -7 43 -35 101 -96 102 -99 108 -372 5 -222 6 -239 25
-255 21 -19 53 -24 62 -10 2 4 -7 9 -22 10 -15 1 -32 8 -38 15 -14 13 -25 479
-11 470 4 -2 12 -1 18 3 7 4 2 11 -13 18 -27 13 -58 70 -58 108 0 15 -9 42
-20 60 -16 26 -20 49 -19 108 1 41 4 86 8 100 l8 25 35 -37 c24 -25 39 -53 46
-85 17 -79 35 -230 30 -251 -3 -11 -1 -44 4 -73 5 -30 13 -142 18 -249 l8
-195 -5 220 c-7 303 -9 356 -22 415 -6 28 -11 72 -11 97 0 55 -33 117 -79 151
l-31 23 -11 -28 c-20 -49 -14 -184 10 -231 42 -81 26 -86 -43 -13 -53 57 -68
80 -85 136 -12 37 -21 92 -21 122 0 58 30 223 41 223 3 0 37 -11 74 -25z
m-712 -194 c18 -38 23 -60 17 -75 -25 -66 -130 -216 -152 -216 -13 0 -62 41
-94 79 -36 44 -67 136 -68 209 -2 53 1 62 14 56 42 -16 79 -15 118 5 41 21 91
81 93 111 0 8 11 -14 23 -50 13 -36 35 -89 49 -119z m337 153 c0 -24 69 -92
106 -104 35 -12 72 -10 108 5 18 8 19 4 13 -70 -4 -59 -13 -93 -37 -141 -36
-73 -107 -140 -138 -130 -24 8 -95 103 -133 178 l-28 56 38 84 c22 46 42 98
46 116 6 31 25 36 25 6z m-244 -304 c17 -31 19 -63 22 -300 l3 -265 -26 39
c-42 62 -114 142 -141 156 -18 10 -31 36 -54 108 l-30 94 50 56 c27 30 65 86
85 124 l37 69 17 -23 c10 -13 27 -39 37 -58z m151 32 c13 -26 46 -78 75 -116
29 -38 57 -75 62 -81 6 -8 0 -40 -19 -91 -22 -62 -39 -89 -76 -124 -26 -25
-70 -71 -98 -103 l-51 -57 0 235 c0 211 2 239 20 286 20 49 50 98 60 98 3 0
15 -21 27 -47z m-365 -286 c15 -45 28 -84 28 -87 0 -4 -15 -3 -34 1 -22 5 -45
3 -66 -7 -18 -7 -36 -11 -39 -7 -3 3 -6 68 -6 144 l0 139 45 -51 c33 -37 52
-73 72 -132z m622 51 c-1 -181 1 -171 -29 -151 -18 12 -40 15 -80 12 -51 -4
-53 -4 -43 15 6 11 20 48 32 83 14 44 36 80 71 118 28 31 50 55 50 56 0 0 0
-60 -1 -133z m-578 -171 c28 -13 54 -28 57 -33 3 -5 -12 -17 -33 -27 -86 -38
-200 -174 -200 -239 0 -11 -4 -15 -11 -11 -8 4 -9 -3 -5 -22 16 -85 17 -141 1
-184 -24 -67 -43 -191 -49 -320 -7 -144 0 -124 14 40 10 125 28 230 50 284 11
29 11 29 25 8 8 -11 30 -30 49 -42 l35 -21 -39 -55 c-68 -97 -102 -238 -101
-419 0 -66 4 -135 8 -153 5 -20 8 34 8 135 0 142 4 182 23 258 29 113 92 225
128 225 31 0 34 -9 24 -56 -6 -21 -17 -131 -25 -244 -9 -113 -20 -214 -24
-225 -5 -11 -21 -53 -36 -93 -16 -44 -44 -93 -71 -124 -24 -29 -44 -55 -44
-60 0 -4 -5 -8 -10 -8 -7 0 -8 39 -4 118 6 99 4 131 -14 207 -11 50 -25 144
-31 210 -11 110 -9 134 14 290 13 94 29 181 34 195 5 14 12 34 17 45 4 11 8
54 9 95 3 111 21 178 60 217 40 40 70 42 141 9z m554 -4 c15 -16 35 -53 44
-82 24 -79 20 -230 -5 -230 -5 0 -9 10 -9 22 0 63 -105 189 -195 232 l-47 23
31 23 c68 48 140 53 181 12z m-449 -89 c86 -92 89 -100 89 -228 0 -138 -11
-171 -72 -215 -40 -30 -47 -32 -109 -27 -55 3 -75 10 -112 36 -52 38 -67 76
-67 173 0 83 32 150 105 216 45 41 106 81 125 82 3 0 22 -17 41 -37z m274 22
c50 -20 143 -112 171 -167 34 -67 35 -189 1 -239 -33 -48 -80 -77 -142 -84
-70 -9 -96 -2 -140 36 -19 17 -35 26 -35 21 0 -6 18 -26 40 -44 l39 -34 -14
-80 c-8 -43 -15 -137 -16 -209 l-1 -130 -14 55 c-31 127 -45 239 -43 355 1 69
-3 132 -10 148 -17 43 -14 216 4 250 17 33 106 136 118 136 4 1 23 -6 42 -14z
m276 -393 c38 -216 35 -423 -8 -581 -9 -32 -19 -120 -22 -204 l-6 -149 -46 64
c-92 128 -117 216 -129 463 -5 110 -13 221 -16 248 -6 45 -6 47 18 47 20 0 32
-14 66 -73 62 -108 77 -185 77 -399 0 -97 1 -175 2 -174 1 1 7 56 14 122 10
106 9 131 -10 237 -19 113 -41 174 -93 260 -23 38 -23 39 -3 50 11 6 33 24 48
40 15 16 29 28 31 26 16 -17 54 -269 59 -389 3 -62 3 -61 5 15 2 101 -13 228
-39 324 -20 76 -19 172 4 216 10 19 10 19 18 -4 5 -12 18 -75 30 -139z m-454
-44 c-2 -13 -4 -5 -4 17 -1 22 1 32 4 23 2 -10 2 -28 0 -40z m692 -39 c8 -26
9 -45 3 -52 -6 -7 -16 -31 -22 -54 -16 -51 -100 -141 -100 -106 0 12 10 29 21
37 50 35 86 140 56 165 -14 11 -14 14 1 32 23 27 27 24 41 -22z m-709 -60 c0
-80 -41 -318 -65 -374 -7 -16 -20 -88 -30 -160 -9 -71 -28 -163 -41 -203 -13
-40 -24 -79 -24 -86 0 -8 -4 -16 -9 -18 -5 -1 -1 -34 9 -73 24 -89 25 -209 4
-272 -31 -91 -73 -89 -100 5 -24 82 -10 375 21 457 6 15 5 17 -4 9 -22 -20
-31 -84 -38 -259 -6 -182 0 -229 40 -272 18 -20 19 -27 9 -80 -28 -140 -32
-202 -21 -310 6 -59 17 -118 24 -129 21 -33 24 -182 5 -194 -32 -21 -84 -9
-189 41 -130 63 -141 75 -97 104 14 9 38 17 55 17 17 1 28 4 26 8 -3 4 7 20
22 36 25 27 26 34 25 129 0 61 -11 153 -26 237 -29 152 -31 171 -16 148 17
-27 10 0 -11 42 -62 121 -17 363 90 484 36 41 89 151 92 192 2 20 12 -40 27
-153 6 -44 18 -98 27 -120 12 -32 14 -34 10 -10 -3 17 -10 59 -15 95 -5 36
-14 89 -21 119 -16 76 6 429 37 582 4 22 12 28 40 31 24 3 35 0 38 -12 16 -54
26 -151 27 -259 1 -104 3 -119 11 -86 11 47 3 214 -16 304 l-13 62 27 14 c14
7 32 21 39 29 23 27 31 7 31 -75z m239 -92 c20 -210 22 -427 6 -491 -8 -31
-15 -74 -15 -95 0 -20 -7 -59 -16 -85 -9 -26 -14 -49 -11 -52 9 -9 37 89 37
130 1 23 9 70 18 105 l18 63 13 -43 c20 -66 59 -138 103 -191 70 -83 104 -263
73 -393 -9 -38 -16 -80 -16 -92 1 -13 -11 -76 -25 -140 -17 -80 -27 -161 -30
-251 -4 -104 -8 -139 -23 -162 -10 -17 -21 -27 -24 -23 -14 14 -6 223 12 329
11 60 22 133 26 162 5 36 13 55 25 62 13 7 20 6 23 -3 3 -6 6 -2 6 10 1 20 -1
20 -30 10 -30 -12 -33 -10 -70 32 -21 24 -39 39 -39 33 0 -6 18 -30 40 -54 46
-48 46 -34 8 -248 -25 -137 -29 -300 -9 -348 l14 -32 23 51 c13 28 24 58 24
67 1 14 5 12 20 -7 24 -28 26 -45 4 -37 -9 3 -12 2 -9 -5 4 -5 17 -9 28 -8 37
2 48 -1 42 -11 -3 -5 -16 -11 -28 -11 -16 -1 -17 -3 -5 -6 9 -2 26 1 37 6 34
19 75 -15 52 -43 -25 -30 -196 -96 -248 -96 -69 0 -69 -2 -66 261 3 195 0 251
-16 337 -17 96 -14 126 8 84 22 -40 44 -246 37 -348 -3 -56 -9 -110 -12 -120
-6 -16 -5 -17 7 -6 21 19 18 313 -4 407 -15 67 -15 71 4 91 41 44 52 116 45
299 -6 168 -18 245 -37 245 -6 0 -5 -9 2 -22 6 -12 16 -91 22 -176 11 -157 3
-255 -24 -316 -26 -56 -72 -37 -91 39 -17 64 -14 218 5 273 16 45 13 70 -21
192 -11 41 -26 126 -33 188 -13 126 -7 403 11 497 l11 60 44 -3 43 -4 11 -111z
m-423 -1183 c-3 -9 -13 -70 -22 -137 -13 -102 -14 -138 -4 -220 6 -53 8 -107
4 -120 -7 -22 -7 -22 -16 3 -19 50 -21 279 -4 379 9 51 19 98 22 102 9 16 26
10 20 -7z"/>
<path d="M768 3583 c23 -2 59 -2 80 0 20 2 1 4 -43 4 -44 0 -61 -2 -37 -4z"/>
<path d="M470 3619 c-94 -42 -171 -153 -169 -242 0 -25 4 -20 15 26 25 104 62
152 154 202 71 38 71 46 0 14z"/>
<path d="M257 2183 c-4 -3 -7 -17 -7 -29 0 -13 -9 -46 -20 -73 -12 -33 -15
-51 -8 -53 6 -2 19 -31 29 -64 13 -42 27 -66 49 -82 36 -27 41 -18 5 9 -14 12
-31 43 -42 77 -10 31 -21 60 -26 63 -4 3 -3 19 3 35 10 26 30 124 25 124 -1 0
-5 -3 -8 -7z"/>
<path d="M199 2113 c-5 -14 -8 -30 -6 -36 1 -5 8 7 14 27 13 42 7 49 -8 9z"/>
<path d="M195 2009 c13 -42 32 -83 49 -104 9 -11 5 2 -9 29 -14 27 -25 57 -25
67 0 10 -5 21 -11 25 -8 4 -9 -1 -4 -17z"/>
<path d="M1650 1996 c-6 -19 -23 -52 -37 -73 l-25 -38 26 24 c26 24 64 107 53
117 -3 3 -10 -10 -17 -30z"/>
<path d="M811 2826 c-1 -18 28 -142 49 -211 8 -25 9 -22 4 16 -6 55 -52 223
-53 195z"/>
<path d="M1044 2824 c-3 -16 -13 -53 -20 -83 -16 -62 -29 -158 -21 -151 3 3
13 43 22 90 9 47 20 103 25 125 9 46 4 62 -6 19z"/>
<path d="M512 1338 c-7 -28 -11 -53 -8 -55 2 -2 9 19 16 47 7 28 10 53 8 55
-3 3 -10 -18 -16 -47z"/>
<path d="M1321 1349 c0 -24 4 -53 9 -64 6 -13 7 2 3 40 -7 73 -13 85 -12 24z"/>
<path d="M587 804 c-29 -27 -43 -33 -60 -28 -18 6 -20 4 -11 -7 7 -8 17 -48
24 -89 6 -41 18 -114 26 -162 20 -118 28 -245 17 -291 l-8 -39 -23 44 c-24 44
-24 32 1 -36 14 -39 15 -39 27 -16 7 14 15 54 18 90 5 74 -2 131 -53 450 -5
31 -2 37 26 55 27 17 70 66 58 65 -2 0 -21 -16 -42 -36z"/>
<path d="M1325 710 c-4 -17 -5 -34 -2 -36 2 -3 7 10 11 27 8 42 0 50 -9 9z"/>
</g>
</svg>
