<?xml version="1.0" standalone="no"?>
<!DOCTYPE svg PUBLIC "-//W3C//DTD SVG 20010904//EN"
 "http://www.w3.org/TR/2001/REC-SVG-20010904/DTD/svg10.dtd">
<svg version="1.0" xmlns="http://www.w3.org/2000/svg"
 width="136.000000pt" height="300.000000pt" viewBox="0 0 136.000000 300.000000"
 preserveAspectRatio="xMidYMid meet">
<metadata>
Created by potrace 1.10, written by Peter Selinger 2001-2011
</metadata>
<g transform="translate(0.000000,300.000000) scale(0.100000,-0.100000)"
fill="#000000" stroke="none">
<path d="M581 2724 c-57 -24 -74 -51 -69 -111 3 -29 1 -53 -4 -53 -13 0 -9
-64 5 -85 44 -65 55 -225 16 -225 -23 0 -24 13 -4 30 8 7 15 28 15 46 l0 34
-37 -15 c-21 -9 -60 -29 -86 -45 -27 -17 -58 -30 -70 -30 -11 0 -40 -9 -64
-21 -54 -26 -86 -82 -88 -156 -1 -28 -9 -62 -17 -75 -21 -32 -28 -57 -29 -108
-1 -25 -8 -58 -17 -74 -8 -16 -23 -66 -34 -110 -16 -70 -18 -104 -13 -261 3
-99 8 -193 11 -209 9 -41 44 -76 85 -82 28 -5 38 -1 61 23 26 27 26 29 13 80
-16 59 -28 84 -49 103 -25 20 -19 77 19 159 25 56 36 98 41 152 4 54 13 84 31
112 13 21 28 50 34 65 l11 27 14 -35 c8 -19 23 -43 32 -53 13 -15 17 -39 17
-113 0 -93 0 -93 35 -131 67 -72 83 -98 26 -41 -33 33 -59 52 -61 45 -27 -73
-35 -104 -35 -132 0 -17 -12 -65 -26 -106 -38 -107 -44 -254 -15 -366 26 -100
26 -134 1 -247 -27 -120 -25 -196 6 -335 34 -150 35 -205 6 -253 -39 -63 -93
-98 -175 -113 l-72 -13 91 -1 c76 -1 93 2 98 15 4 12 2 15 -9 10 -26 -9 -17 0
39 44 30 23 53 47 50 54 -2 6 7 22 21 34 14 12 25 33 25 46 0 45 -13 116 -20
111 -10 -6 -29 117 -37 232 -7 115 8 124 26 16 32 -194 43 -249 66 -312 29
-80 29 -82 11 -75 -8 3 -17 15 -19 27 -4 21 -4 21 -6 -1 0 -13 8 -42 19 -64
22 -46 26 -78 10 -78 -6 0 -9 10 -8 22 2 13 -1 25 -7 28 -6 3 -13 -15 -16 -39
-3 -26 -13 -49 -24 -57 -17 -13 -18 -14 -1 -14 9 0 33 12 53 27 32 24 34 30
29 62 -4 20 -9 88 -12 151 -5 105 -3 121 20 189 15 42 26 97 26 125 0 75 -12
156 -21 150 -5 -2 3 19 16 48 30 66 48 168 43 247 -1 34 0 61 5 61 4 0 7 -17
8 -37 0 -36 2 -34 26 32 13 39 28 98 32 132 7 58 6 61 -12 51 -31 -16 -41 3
-30 61 10 52 -4 110 -39 160 -14 20 -14 26 6 61 20 37 23 39 55 34 23 -5 32
-3 27 4 -3 6 -2 13 4 17 5 3 10 -1 10 -9 0 -12 10 -16 35 -16 25 0 35 -4 35
-15 0 -9 7 -26 15 -38 13 -21 13 -26 -10 -60 -35 -51 -38 -79 -22 -179 11 -68
11 -85 1 -81 -7 2 -18 18 -24 34 -7 16 -17 29 -23 29 -16 0 -1 -87 30 -180
l28 -84 5 39 c4 26 8 -1 11 -75 4 -95 10 -125 31 -170 19 -44 23 -61 15 -80
-5 -14 -10 -63 -10 -110 -1 -69 4 -102 27 -173 24 -75 28 -97 22 -150 -13
-120 -15 -201 -4 -214 8 -10 2 -17 -23 -28 l-34 -14 68 -1 c65 0 67 1 57 20
-6 11 -15 20 -21 20 -5 0 -7 11 -3 24 3 15 -1 29 -12 41 -13 13 -15 21 -7 34
13 21 27 81 19 81 -4 0 -11 -12 -17 -27 -23 -58 -19 -2 5 69 25 74 69 297 69
351 0 15 4 27 8 27 5 0 9 -37 9 -82 0 -103 -20 -244 -32 -226 -6 9 -8 5 -7
-12 1 -14 -2 -33 -6 -43 -12 -28 1 -109 19 -123 9 -6 19 -22 21 -35 5 -23 25
-51 25 -34 0 5 13 -4 30 -20 16 -15 27 -32 24 -36 -3 -5 3 -6 12 -2 12 4 15 3
10 -5 -11 -18 -27 -15 -55 11 l-24 22 19 -27 c12 -18 28 -27 45 -28 44 0 41
24 -8 65 -91 76 -99 119 -58 295 37 159 40 219 16 327 -27 117 -26 189 0 300
27 113 22 211 -20 347 -17 54 -31 111 -31 125 0 15 -7 48 -16 74 l-16 47 -50
-56 c-28 -30 -53 -52 -56 -49 -3 3 19 30 49 61 l54 55 5 105 c3 65 10 108 17
112 7 4 20 26 29 47 l17 40 14 -35 c8 -19 24 -48 35 -63 15 -21 23 -54 28
-111 6 -63 15 -96 40 -142 17 -34 34 -80 37 -103 5 -36 2 -46 -21 -70 -15 -15
-33 -52 -41 -85 -14 -53 -14 -59 2 -81 24 -32 46 -39 86 -25 64 22 71 44 79
255 8 203 -1 284 -42 385 -10 25 -21 68 -23 96 -2 29 -14 70 -25 93 -12 23
-22 60 -22 84 0 52 -29 117 -64 144 -15 12 -45 25 -68 28 -23 4 -60 19 -81 32
-22 14 -59 33 -83 43 -41 18 -44 22 -44 56 0 21 -3 34 -7 31 -11 -12 -3 -110
12 -141 19 -37 19 -36 -9 -36 -19 0 -22 4 -18 25 7 37 -12 30 -32 -11 l-17
-36 23 5 c13 3 54 9 91 13 71 7 102 24 45 24 -39 0 -73 21 -81 50 -3 11 -3 20
-1 20 13 0 126 -63 141 -78 19 -20 67 -37 57 -21 -7 12 10 11 40 -3 38 -17 57
-53 62 -116 l5 -57 -19 53 c-11 29 -25 59 -31 65 -9 9 -10 7 -5 -8 7 -18 6
-19 -11 -5 -17 14 -18 14 -6 -9 10 -17 15 -20 21 -11 5 8 8 3 7 -13 -1 -15 -3
-27 -5 -27 -2 0 -14 12 -28 28 l-25 27 21 -39 c12 -21 19 -40 17 -43 -3 -2
-27 21 -53 51 -27 31 -54 56 -60 56 -6 0 -19 9 -28 19 -13 15 -14 20 -4 24 19
8 -114 -5 -137 -13 -11 -4 6 -7 43 -8 63 0 91 -11 140 -55 31 -28 28 -41 -5
-20 -15 10 -24 13 -20 6 5 -8 -5 -10 -35 -7 l-43 4 40 -13 c98 -33 107 -56 22
-59 l-52 -1 49 -6 c38 -5 46 -8 35 -17 -26 -20 -85 -43 -127 -50 -36 -6 -47
-3 -77 20 l-35 27 0 -26 c0 -39 40 -72 96 -80 98 -13 97 -24 -3 -35 -56 -6
-70 -5 -80 8 -11 14 -13 12 -13 -9 0 -24 5 -26 63 -35 52 -7 62 -12 62 -29 0
-13 -12 -24 -38 -33 -36 -14 -38 -14 -62 12 l-25 27 0 -35 c0 -44 12 -51 78
-47 28 1 52 -1 52 -7 0 -18 -49 -62 -70 -62 -11 0 -29 9 -40 20 l-20 20 0 -39
c0 -22 5 -41 13 -44 17 -6 80 4 95 16 21 17 14 -27 -9 -57 -19 -25 -23 -26
-37 -13 -12 12 -19 13 -33 4 -15 -9 -21 -8 -33 8 -14 18 -15 18 -16 3 0 -21
-20 -24 -38 -6 -9 9 -12 9 -12 0 0 -19 -42 2 -51 26 -11 28 0 33 46 21 33 -9
41 -8 52 7 15 21 17 70 3 79 -5 3 -10 -3 -10 -13 0 -24 -19 -33 -52 -25 -33 8
-48 22 -48 45 0 17 5 18 43 13 53 -8 77 10 77 58 l0 32 -23 -29 c-20 -25 -27
-27 -56 -21 -31 7 -57 41 -42 57 3 4 31 11 61 15 49 7 55 11 58 33 2 21 1 23
-10 10 -17 -20 -95 -23 -133 -6 l-30 13 30 7 c107 25 124 30 120 34 -2 3 2 14
10 26 26 37 15 91 -12 61 -10 -11 -10 -14 0 -18 23 -8 -1 -18 -54 -24 -39 -3
-68 0 -103 14 -65 24 -70 41 -14 46 42 3 42 4 -9 5 -85 3 -75 27 22 58 34 11
36 13 13 13 -14 1 -34 4 -44 8 -13 5 -15 3 -9 -7 5 -9 4 -11 -3 -6 -6 4 -22 2
-34 -5 l-23 -12 20 23 c34 38 76 63 129 76 42 10 45 12 20 13 -17 1 -53 3 -80
6 -39 4 -44 3 -25 -5 19 -8 21 -13 11 -25 -7 -8 -18 -15 -25 -15 -8 0 -36 -26
-64 -57 -30 -34 -51 -51 -51 -42 0 9 9 28 20 42 29 36 25 48 -5 12 -27 -34
-33 -19 -9 23 11 19 12 22 1 10 -8 -10 -17 -18 -20 -18 -4 0 -4 8 -2 18 3 9
-4 -1 -15 -23 -11 -22 -20 -49 -20 -59 0 -14 -3 -17 -11 -9 -7 7 -7 23 2 54 7
24 12 47 11 51 -3 13 60 58 81 58 18 0 19 -2 7 -10 -20 -13 -10 -12 29 1 17 6
31 14 31 19 0 4 32 24 70 44 63 33 70 35 70 18 0 -29 -32 -52 -74 -52 -63 0
-30 -18 46 -25 40 -4 82 -12 92 -17 16 -9 18 -8 11 8 -4 11 -10 28 -12 39 -5
20 -5 20 10 0 8 -11 17 -30 21 -42 4 -13 12 -23 17 -23 5 0 27 39 49 86 43 93
45 98 31 90 -5 -3 -3 11 5 32 17 47 18 75 2 69 -8 -2 -12 -16 -10 -36 3 -29 1
-32 -20 -29 -17 2 -22 9 -21 26 3 19 0 21 -16 13 -25 -14 -30 -7 -25 45 l4 44
-37 1 c-30 0 -34 2 -18 9 19 8 19 9 -2 9 -24 1 -27 -5 -24 -53 1 -16 -3 -32
-9 -36 -9 -6 -4 -36 16 -84 5 -13 4 -17 -3 -13 -33 21 -41 236 -8 223 7 -2 21
1 31 8 11 7 41 14 68 15 26 1 52 4 57 7 18 11 53 -108 44 -154 -6 -33 -5 -35
9 -22 19 19 33 100 17 100 -7 0 -9 15 -5 44 5 36 2 50 -15 74 -40 57 -113 75
-180 46z m114 -8 c19 -8 35 -19 35 -23 0 -12 -38 -14 -45 -2 -4 5 -12 6 -18 2
-7 -4 -14 -8 -17 -9 -6 -1 -36 -12 -68 -25 -29 -11 -32 -11 -32 1 0 6 6 10 13
10 6 0 27 14 46 30 39 35 40 35 86 16z m75 -78 c0 -5 -7 -8 -15 -8 -15 0 -20
21 -8 33 7 7 23 -11 23 -25z m-140 -145 c0 -6 -5 -15 -11 -18 -6 -4 -8 -13 -6
-20 5 -10 -25 -45 -38 -45 -3 0 -4 20 -3 45 0 24 5 42 10 39 4 -3 8 -1 8 5 0
5 9 9 20 8 11 -1 20 -7 20 -14z m60 -92 c0 -6 -5 -13 -10 -16 -6 -4 -8 -10 -5
-15 8 -14 -14 -22 -40 -16 -15 4 -22 11 -19 20 3 8 13 12 24 9 10 -3 21 1 25
8 6 9 -1 11 -28 6 -21 -3 -37 -2 -37 4 0 5 20 9 45 9 25 0 45 -4 45 -9z m-59
-81 c26 -14 24 -32 -3 -28 -13 2 -24 11 -26 21 -4 20 2 21 29 7z m-301 -334
c0 -53 -42 -139 -75 -154 -31 -14 -31 -15 0 70 14 38 25 75 24 81 0 7 -12 -20
-27 -60 -15 -39 -32 -75 -37 -80 -6 -4 -7 -4 -3 1 4 5 3 17 -3 28 -15 28 30
122 72 147 18 11 36 18 41 15 4 -3 8 -24 8 -48z m696 19 c42 -42 74 -143 47
-152 -6 -2 -20 24 -33 62 -12 37 -24 64 -27 61 -3 -3 4 -33 16 -66 28 -76 26
-97 -7 -75 -40 29 -86 154 -67 185 11 18 45 11 71 -15z m-806 -28 c0 -15 -20
-47 -30 -47 -14 0 -17 32 -7 64 9 27 11 28 24 11 7 -11 13 -23 13 -28z m223 2
c15 -6 27 -13 27 -15 0 -2 -18 -22 -41 -45 -35 -35 -43 -39 -55 -28 -9 10 -11
30 -7 72 6 56 6 57 27 42 12 -8 33 -20 49 -26z m667 -32 c0 -32 -2 -36 -13
-25 -30 29 -38 56 -25 78 12 19 14 19 26 3 6 -9 12 -34 12 -56z m-191 -8 c1
-58 -19 -64 -62 -19 -40 41 -41 40 18 70 35 18 43 9 44 -51z m-454 -54 c25
-21 27 -25 12 -31 -23 -9 -50 3 -44 20 3 7 0 19 -6 25 -21 21 8 10 38 -14z
m388 4 c-6 -6 -9 -18 -6 -25 3 -9 -2 -14 -15 -14 -33 0 -35 16 -5 38 28 21 46
21 26 1z m278 -44 c25 -55 33 -155 17 -206 -6 -22 -14 -39 -18 -39 -11 0 -40
93 -40 128 0 21 -4 31 -11 27 -5 -4 -3 10 5 30 9 21 16 53 16 71 0 19 3 34 6
34 3 0 14 -20 25 -45z m-929 -80 c0 -11 2 -31 4 -43 4 -20 7 -22 19 -12 13 10
15 8 15 -14 0 -14 -4 -26 -8 -26 -5 0 -15 -19 -22 -42 -8 -24 -18 -49 -24 -56
-5 -8 -11 -48 -12 -90 -1 -42 -7 -78 -13 -80 -5 -2 -8 -9 -5 -17 3 -8 12 -11
19 -9 16 7 50 -41 58 -81 3 -16 9 -38 12 -47 4 -10 3 -18 -3 -18 -6 0 -18 20
-28 45 -20 53 -29 56 -38 14 -7 -38 8 -69 34 -69 11 0 20 -4 20 -10 0 -20 -46
-9 -76 19 -24 21 -32 39 -36 74 -3 25 -3 49 0 52 3 2 6 18 6 34 1 22 -2 27
-11 19 -10 -8 -13 -1 -12 33 0 38 1 41 10 20 5 -13 11 -22 13 -20 4 4 -20 160
-29 188 -3 10 -1 29 4 42 l10 24 0 -25 c1 -14 10 -38 21 -55 14 -21 20 -49 21
-95 l2 -65 8 65 c4 36 11 76 14 90 4 18 3 21 -4 10 -18 -27 -26 1 -26 89 0 74
-2 85 -13 72 -11 -14 -12 -13 -4 4 6 11 18 38 27 60 l17 40 15 -50 c8 -27 14
-59 15 -70z m243 45 c3 -5 12 -7 20 -4 17 7 32 -23 18 -37 -6 -6 -20 2 -38 21
-16 16 -24 30 -17 30 6 0 13 -4 17 -10z m415 1 c0 -6 -11 -22 -24 -37 -23 -27
-23 -28 -34 -7 -13 23 -3 37 33 46 11 2 21 5 23 6 1 0 2 -3 2 -8z m-371 -100
c5 -9 7 -28 4 -41 -4 -22 7 -59 42 -144 16 -37 -44 14 -72 61 -23 40 -47 113
-36 113 2 0 15 -12 29 -27 22 -24 24 -25 14 -5 -6 12 -8 27 -5 32 3 5 1 11 -5
15 -5 3 -10 10 -10 15 0 14 29 0 39 -19z m330 2 c-12 -15 -12 -16 4 -10 16 6
16 4 -3 -23 -27 -38 -9 -40 19 -2 20 26 20 27 21 4 0 -12 -9 -39 -19 -60 -20
-39 -91 -126 -97 -119 -2 2 8 33 23 68 14 35 25 79 24 98 -2 33 13 61 31 61 6
0 4 -8 -3 -17z m251 -8 c1 6 12 -19 26 -55 13 -37 22 -75 19 -88 -4 -14 -2
-21 4 -18 6 4 12 -10 14 -31 3 -28 4 -25 3 12 0 28 5 59 12 70 12 18 12 16 8
-15 -5 -34 -5 -34 4 -5 5 17 13 48 17 70 l8 40 3 -47 c3 -45 -8 -128 -23 -173
-6 -17 -5 -18 5 -5 12 15 11 -11 -4 -100 -5 -26 -4 -30 3 -15 7 15 10 5 10
-42 1 -47 -2 -61 -12 -57 -7 2 -24 -7 -37 -21 -24 -25 -64 -33 -75 -15 -3 6 5
10 19 10 32 0 49 30 37 63 -6 14 -7 28 -4 31 4 3 0 6 -8 6 -9 0 -20 -18 -27
-45 -8 -30 -17 -45 -28 -45 -12 0 -14 3 -6 13 6 7 13 30 16 51 5 39 39 87 60
83 6 -1 10 7 8 18 -2 11 -6 47 -9 80 -3 33 -12 70 -20 82 -8 12 -17 47 -20 79
-5 44 -8 53 -14 36 -4 -11 -4 -35 1 -53 10 -33 5 -54 -5 -27 -7 18 -9 52 -7
98 2 27 5 31 12 20 5 -8 10 -10 10 -5z m-190 -339 c11 -56 15 -171 6 -211 -2
-11 -5 -28 -5 -38 -1 -10 -5 -16 -10 -12 -5 3 -11 -5 -13 -17 -5 -29 -37 69
-39 116 -1 30 -1 30 -9 6 -4 -14 -9 -18 -10 -10 -1 8 -4 29 -7 45 -2 17 -1 59
3 95 l7 65 13 -35 14 -35 -7 45 c-8 54 -8 84 2 108 6 13 11 9 25 -24 10 -23
23 -67 30 -98z m-406 72 c3 -29 10 -78 15 -108 9 -53 4 -137 -7 -125 -3 3 -17
-30 -30 -72 -14 -43 -27 -71 -29 -63 -3 8 -11 29 -18 45 -23 53 -7 259 27 348
17 44 35 33 42 -25z m67 -43 c20 -44 25 -90 9 -80 -7 4 -9 -2 -6 -17 11 -55
13 -85 6 -108 -10 -34 -15 -18 -35 115 -9 61 -19 124 -22 140 -4 29 -4 29 12
10 10 -11 26 -38 36 -60z m233 -74 c-13 -79 -26 -146 -29 -149 -6 -6 -9 37 -6
88 1 20 -2 47 -7 61 -7 17 -6 34 4 58 14 34 54 94 59 89 2 -2 -8 -68 -21 -147z
m-381 49 c-25 -71 -28 -211 -8 -324 17 -93 15 -127 -6 -96 -5 8 -7 25 -4 38 3
12 -3 41 -14 65 -39 88 -33 180 20 315 26 63 35 65 12 2z m538 -86 c15 -56 20
-95 16 -136 -7 -75 -34 -138 -61 -138 -19 0 -19 1 -2 13 28 20 42 141 29 245
-6 48 -14 96 -18 107 -5 16 -5 17 4 4 6 -9 20 -51 32 -95z m-721 -39 c0 -8 -4
-15 -10 -15 -5 0 -10 7 -10 15 0 8 5 15 10 15 6 0 10 -7 10 -15z m403 -57 c-8
-46 -13 -48 -13 -5 0 21 4 37 10 37 5 0 7 -14 3 -32z m-82 -133 c1 -16 -1 -37
-5 -45 -5 -13 -13 -62 -15 -95 -1 -18 -42 -15 -47 3 -3 9 -9 26 -14 37 -22 55
-20 67 30 180 l23 49 13 -49 c6 -28 13 -63 15 -80z m316 -46 c10 -86 -54 -153
-72 -76 -4 17 -9 37 -11 42 -14 42 -13 85 2 142 l17 65 30 -64 c16 -34 32 -84
34 -109z m-257 136 c0 -8 -9 -19 -20 -25 -14 -7 -20 -7 -20 0 0 5 7 10 16 10
8 0 13 4 10 9 -3 5 -16 7 -28 3 -14 -3 -19 -2 -14 6 11 17 56 15 56 -3z m150
-3 c0 -9 -9 -23 -20 -30 -11 -7 -20 -8 -20 -3 0 6 8 15 18 20 15 9 14 10 -6
11 -13 0 -20 4 -17 10 11 17 45 11 45 -8z m170 -186 c-14 -14 -22 -2 -14 18 5
14 9 15 15 4 4 -7 4 -17 -1 -22z m-476 -79 c21 -31 24 -42 15 -64 l-10 -26
-15 22 c-9 12 -22 20 -30 17 -8 -3 -14 0 -14 6 0 15 23 89 26 85 2 -1 14 -19
28 -40z m461 -9 c5 -25 4 -38 -4 -38 -6 0 -11 -8 -12 -17 0 -11 -3 -13 -6 -5
-7 18 -23 15 -24 -5 0 -14 -3 -14 -11 4 -9 18 -6 31 13 68 26 49 34 48 44 -7z
m-522 -63 c5 -53 4 -75 -3 -65 -9 14 -15 159 -6 149 2 -2 6 -40 9 -84z m546
-27 c-4 -35 -5 -75 -2 -91 3 -17 0 -34 -9 -45 -8 -9 -20 -32 -28 -49 -7 -18
-15 -33 -19 -33 -11 0 -41 96 -41 133 0 19 -7 54 -15 77 -15 41 -14 43 2 27
10 -8 30 -18 45 -22 15 -4 30 -16 34 -28 7 -22 7 -22 15 -2 4 11 8 37 8 58 1
20 5 37 9 37 5 0 5 -28 1 -62z m-443 -21 c-8 -20 -12 -50 -9 -68 2 -18 0 -42
-6 -53 -6 -12 -14 -37 -19 -56 -11 -45 -24 -42 -39 8 -6 22 -18 51 -27 64 -15
22 -14 27 8 68 13 25 32 47 42 49 11 2 28 10 38 17 27 19 30 12 12 -29z m24
-179 c0 -35 -5 -70 -10 -78 -7 -11 -10 0 -10 37 0 28 -3 59 -7 69 -5 13 -3 15
7 9 10 -6 12 -4 7 8 -3 10 -2 17 3 17 6 0 10 -28 10 -62z m314 -49 c-4 -21
-10 -37 -14 -34 -10 6 -19 88 -12 122 5 27 5 27 19 -11 7 -23 10 -55 7 -77z
m-361 -118 c4 -73 2 -100 -5 -93 -6 6 -13 57 -16 114 -3 68 -1 100 6 93 5 -5
12 -57 15 -114z m402 12 c-4 -40 -10 -85 -15 -100 -8 -27 -8 -27 -9 8 -2 74
12 190 21 177 5 -7 6 -46 3 -85z m-22 -359 c-8 -22 -23 -6 -23 24 1 25 2 26
15 9 7 -11 11 -25 8 -33z"/>
<path d="M688 2552 c-39 -3 -43 -8 -30 -29 10 -17 63 -10 73 10 11 20 4 23
-43 19z"/>
<path d="M565 2190 c-28 -7 -28 -8 -5 -9 14 -1 36 -4 49 -8 18 -4 22 -2 19 8
-6 17 -23 19 -63 9z"/>
<path d="M660 2185 c-18 -22 -11 -23 35 -9 22 7 32 13 23 13 -9 1 -23 3 -31 6
-7 3 -20 -1 -27 -10z"/>
<path d="M590 2141 c0 -6 -12 -11 -27 -12 l-28 -1 25 -8 c14 -4 38 -8 53 -9
22 -1 28 3 25 17 -3 18 -48 31 -48 13z"/>
<path d="M650 2129 c0 -19 4 -21 31 -15 17 3 39 6 48 6 19 1 -45 30 -65 30 -8
0 -14 -10 -14 -21z"/>
<path d="M575 2080 c28 -12 67 -12 60 0 -3 6 -23 10 -43 9 -30 0 -33 -2 -17
-9z"/>
<path d="M650 2080 c0 -12 27 -12 55 0 16 7 13 9 -17 9 -21 1 -38 -3 -38 -9z"/>
<path d="M357 40 c-31 -24 -45 -26 -26 -3 13 15 12 15 -8 2 -13 -7 -25 -20
-28 -28 -4 -11 -3 -11 9 -2 10 8 15 9 18 1 2 -8 13 -6 33 4 17 9 26 16 20 16
-5 0 -3 4 5 10 8 5 12 11 9 15 -3 3 -17 -4 -32 -15z"/>
<path d="M900 51 c0 -6 5 -11 12 -11 6 0 8 -3 5 -7 -4 -3 5 -12 19 -20 36 -18
42 -16 18 4 -41 38 -54 46 -54 34z"/>
</g>
</svg>
