<?xml version="1.0" standalone="no"?>
<!DOCTYPE svg PUBLIC "-//W3C//DTD SVG 20010904//EN"
 "http://www.w3.org/TR/2001/REC-SVG-20010904/DTD/svg10.dtd">
<svg version="1.0" xmlns="http://www.w3.org/2000/svg"
 width="300.000000pt" height="811.000000pt" viewBox="0 0 300.000000 811.000000"
 preserveAspectRatio="xMidYMid meet">
<metadata>
Created by potrace 1.10, written by Peter Selinger 2001-2011
</metadata>
<g transform="translate(0.000000,811.000000) scale(0.100000,-0.100000)"
fill="#000000" stroke="none">
<path d="M1381 7872 c-55 -21 -147 -95 -183 -147 -44 -64 -56 -176 -31 -299 4
-22 2 -28 -8 -24 -8 3 -24 2 -36 -3 -30 -11 -39 -66 -24 -148 19 -106 40 -161
67 -173 29 -13 40 -71 30 -161 -9 -93 -9 -93 -179 -171 -43 -20 -119 -61 -168
-91 -68 -42 -98 -55 -128 -55 -55 0 -152 -32 -211 -70 -90 -58 -162 -165 -196
-293 -17 -63 -18 -126 -3 -200 11 -52 10 -59 -14 -99 -51 -87 -76 -200 -81
-359 -4 -133 -7 -155 -39 -255 -69 -213 -91 -441 -66 -684 8 -74 15 -225 17
-335 1 -110 3 -225 4 -255 2 -30 -3 -108 -10 -173 -13 -112 -12 -122 7 -185
41 -135 107 -206 286 -306 45 -25 91 -46 103 -46 66 0 68 85 3 182 -40 59 -66
127 -58 151 2 6 14 -10 26 -36 24 -50 50 -64 95 -53 33 8 50 63 43 135 -22
206 -50 297 -120 389 l-50 67 6 101 c6 105 24 165 121 397 54 127 65 196 65
391 l0 168 45 69 c26 38 49 69 54 69 4 -1 25 -40 47 -87 36 -77 40 -94 38
-157 0 -39 -8 -101 -17 -138 -9 -41 -15 -107 -14 -170 1 -75 -5 -125 -19 -183
-12 -44 -24 -136 -28 -205 -6 -97 -14 -143 -36 -206 -19 -54 -32 -120 -39
-195 -6 -63 -18 -186 -28 -274 -22 -205 -21 -420 1 -545 24 -132 66 -287 90
-335 17 -33 22 -70 28 -214 5 -96 11 -181 14 -189 8 -20 -22 -151 -50 -221
-50 -121 -67 -224 -62 -356 5 -113 33 -241 65 -302 6 -10 18 -58 27 -108 9
-49 23 -119 31 -155 22 -103 44 -251 44 -305 0 -27 -8 -88 -19 -135 -11 -47
-25 -110 -32 -140 -12 -58 -47 -107 -155 -217 -55 -57 -84 -106 -84 -146 0
-36 53 -102 102 -125 52 -26 163 -44 209 -36 87 16 189 103 210 178 7 25 23
43 64 70 64 42 71 61 60 155 -5 36 -9 107 -10 156 -1 50 -5 122 -9 160 -7 56
-2 113 23 285 36 253 40 267 97 386 51 108 79 243 71 339 -3 33 -20 132 -38
219 -35 175 -35 166 14 297 14 36 30 99 36 140 22 150 41 257 66 359 14 58 33
148 42 200 25 148 25 148 53 -15 6 -33 18 -82 26 -110 13 -45 35 -173 80 -460
12 -80 27 -130 52 -184 l36 -74 -28 -166 c-15 -91 -30 -213 -33 -271 -6 -120
6 -168 79 -319 34 -70 42 -98 49 -175 5 -50 13 -124 19 -164 14 -103 13 -176
-6 -286 -15 -86 -15 -100 -1 -140 14 -40 14 -53 1 -113 -17 -82 -18 -143 -2
-178 6 -14 34 -43 63 -64 39 -29 54 -49 64 -81 15 -51 58 -93 126 -126 60 -28
117 -30 218 -8 122 27 167 69 167 154 0 52 -54 135 -132 201 -102 88 -143 212
-142 429 0 111 6 150 48 345 26 121 62 272 79 335 27 100 31 131 30 235 -1
140 -12 209 -55 337 -28 84 -32 107 -34 233 -4 178 9 317 35 376 27 60 79 270
96 384 22 146 21 285 -3 530 -36 367 -41 402 -67 462 -20 44 -27 81 -31 162
-5 77 -15 132 -36 201 -29 91 -30 97 -18 162 9 46 11 100 6 170 -4 57 -7 138
-7 180 1 68 5 84 33 130 17 29 36 66 43 82 l13 30 20 -41 c12 -22 32 -53 45
-69 24 -29 24 -30 17 -184 -12 -251 3 -334 103 -571 38 -89 56 -182 57 -286 0
-55 -4 -69 -33 -110 -63 -90 -83 -157 -107 -359 -10 -80 -10 -108 0 -138 33
-100 135 -50 159 78 11 61 21 70 21 20 0 -66 -25 -137 -74 -211 -59 -88 -70
-142 -35 -167 47 -32 83 -18 233 94 142 105 191 194 189 345 -5 475 -1 782 12
890 29 237 14 450 -46 655 -29 96 -31 112 -24 190 14 162 -1 267 -55 391 -30
67 -31 74 -20 115 18 64 8 215 -19 284 -29 77 -85 154 -141 195 -63 46 -179
95 -243 102 -39 4 -75 20 -148 63 -91 55 -307 160 -329 160 -24 0 -32 49 -25
143 6 89 8 96 31 101 13 4 30 19 38 35 23 44 56 171 56 216 0 43 -22 85 -44
85 -11 0 -13 23 -8 109 4 90 2 118 -14 160 -34 96 -113 165 -226 201 -82 26
-252 27 -317 2z m339 -60 c81 -31 159 -121 173 -198 6 -32 -15 -199 -26 -211
-4 -3 -7 18 -7 48 -1 111 -28 170 -94 203 -35 17 -44 17 -132 5 -77 -10 -112
-10 -184 0 -82 12 -93 11 -127 -6 -58 -28 -74 -60 -87 -165 -7 -51 -15 -88
-19 -81 -15 24 -20 169 -7 222 16 68 80 139 163 181 61 31 64 32 177 27 86 -3
129 -10 170 -25z m-180 -185 c30 0 85 3 121 8 146 17 160 -4 195 -312 6 -50
-5 -112 -58 -322 -14 -54 -76 -139 -125 -168 -49 -29 -159 -48 -208 -34 -52
14 -133 79 -157 125 -28 54 -48 125 -51 183 -2 26 -8 57 -14 68 -21 39 -26
148 -10 211 9 32 21 89 28 126 9 54 18 74 43 99 31 31 31 31 106 23 41 -4 100
-7 130 -7z m-350 -272 c9 -11 8 -19 -4 -37 -27 -38 -17 -142 12 -124 10 6 37
-82 28 -91 -11 -11 -47 26 -65 68 -39 90 -40 199 -2 199 10 0 24 -7 31 -15z
m751 -6 c23 -44 -15 -195 -58 -229 -14 -11 -27 -19 -29 -17 -9 9 21 84 39 100
12 10 16 16 9 12 -10 -5 -11 8 -7 62 4 37 8 74 11 81 5 19 22 14 35 -9z m-741
-90 c0 -31 -4 -48 -10 -44 -11 7 -13 54 -4 79 10 27 14 18 14 -35z m75 -324
c8 -22 29 -56 46 -74 24 -27 38 -61 64 -157 19 -67 48 -158 64 -201 37 -93 38
-103 9 -76 -62 57 -187 95 -303 92 -124 -3 -123 -3 -78 30 46 33 118 136 128
182 9 40 25 20 25 -32 0 -49 21 -152 33 -164 6 -7 7 2 3 25 -19 97 -28 210
-30 355 -1 149 -1 156 12 110 7 -28 19 -68 27 -90z m535 -157 c-6 -95 -13
-191 -15 -213 l-4 -40 14 43 c7 23 17 73 21 111 l6 69 31 -58 c16 -33 54 -84
84 -114 31 -31 49 -56 42 -57 -8 0 -66 -1 -129 -2 -118 -2 -116 -2 -258 -64
-10 -4 -10 1 -1 23 33 86 109 309 109 321 0 8 18 35 40 60 21 24 44 61 51 81
19 58 21 25 9 -160z m-280 -18 c63 0 86 5 124 25 25 13 46 22 46 20 0 -3 -27
-80 -60 -172 -57 -159 -109 -277 -118 -268 -16 15 -127 350 -139 418 l-5 28
37 -25 c32 -22 49 -26 115 -26z m335 30 c10 -11 22 -20 26 -20 19 0 230 -108
293 -149 68 -45 69 -46 40 -53 -16 -3 -67 -15 -114 -26 l-85 -20 -43 42 c-24
22 -61 70 -82 106 -67 111 -85 176 -35 120z m-680 -55 c-39 -89 -97 -165 -145
-190 -21 -11 -39 -10 -115 6 -49 11 -94 21 -99 22 -15 5 122 89 248 153 67 33
124 62 128 62 4 1 -3 -23 -17 -53z m-372 -181 c20 -4 37 -9 37 -13 0 -3 -25
-14 -56 -24 -208 -66 -343 -277 -332 -522 l3 -70 7 70 c22 205 51 287 135 376
62 66 113 101 198 135 66 27 70 27 143 15 113 -19 123 -25 71 -40 -34 -10 -66
-35 -135 -105 -76 -76 -99 -107 -138 -185 -50 -101 -92 -146 -192 -209 -29
-18 -66 -51 -83 -73 l-30 -41 -28 53 c-48 93 -54 112 -60 180 -13 156 84 332
226 408 86 45 152 58 234 45z m1567 -5 c77 -17 186 -77 234 -129 118 -126 150
-310 81 -465 -8 -16 -21 -47 -29 -69 l-16 -39 -22 29 c-50 64 -85 97 -139 129
-72 44 -121 101 -184 210 -65 115 -158 215 -234 253 l-58 29 81 19 81 20 62
-22 c150 -54 251 -139 308 -259 41 -86 55 -152 55 -256 0 -57 3 -78 11 -73 8
5 10 38 6 108 -13 249 -141 424 -362 492 -39 12 -37 17 10 27 35 8 69 7 115
-4z m-363 -81 c100 -37 201 -142 287 -299 49 -90 50 -133 3 -226 -66 -130
-160 -195 -308 -214 -98 -12 -194 4 -310 51 -127 51 -171 117 -168 251 l2 80
45 44 c25 25 53 47 63 50 17 6 27 25 13 25 -19 0 -93 -63 -112 -95 -17 -30
-15 96 3 164 42 159 281 243 482 169z m-695 1 c133 -52 178 -115 178 -254 0
-47 -2 -85 -4 -85 -2 0 -20 16 -39 35 -19 19 -41 35 -48 35 -8 0 8 -19 34 -42
l48 -43 1 -95 c2 -79 -2 -102 -19 -136 -69 -131 -378 -200 -552 -124 -94 42
-201 184 -201 268 0 31 24 45 158 92 34 13 62 26 62 30 0 11 -172 -51 -195
-70 -17 -14 -17 -13 -11 10 45 153 203 342 321 384 63 23 204 20 267 -5z
m1068 -418 c0 -5 42 -39 93 -75 138 -98 168 -148 198 -336 15 -97 5 -269 -20
-325 -23 -51 -64 -92 -101 -100 -33 -7 -94 16 -128 48 -63 59 -119 205 -143
375 -16 117 -8 172 40 271 23 47 41 100 41 118 0 18 5 33 10 33 6 0 10 -4 10
-9z m-1647 -186 l37 -77 -10 -104 c-12 -131 -40 -246 -79 -321 -44 -87 -76
-116 -143 -132 -74 -18 -110 -5 -141 53 -30 57 -37 267 -12 387 33 167 75 231
204 313 38 25 73 50 77 58 5 8 12 -7 20 -44 6 -31 27 -91 47 -133z m-364 69
c2 -10 6 -21 10 -24 4 -3 15 -18 24 -33 17 -26 17 -31 3 -60 -33 -71 -58 -236
-54 -367 3 -114 5 -129 30 -172 22 -41 25 -55 20 -95 l-7 -48 -13 43 c-8 24
-39 99 -70 165 l-57 122 1 125 c0 131 25 267 49 276 7 3 18 25 25 50 13 45 32
54 39 18z m2376 -73 c43 -104 55 -186 43 -314 -11 -137 -29 -205 -74 -278 -19
-31 -46 -83 -61 -115 l-26 -59 -7 35 c-3 19 -11 44 -17 55 -9 16 -5 26 26 61
59 67 75 137 68 286 -3 68 -15 159 -26 203 -18 75 -18 82 -3 115 19 41 44 82
47 78 2 -2 15 -32 30 -67z m-1256 -168 c-11 -21 -19 -23 -103 -23 -85 0 -95
-2 -146 -33 -30 -18 -70 -53 -88 -78 -97 -132 -141 -133 -173 -6 -9 38 -9 61
0 101 l12 52 63 -9 c54 -8 76 -5 158 16 165 44 255 101 275 175 6 18 9 -5 11
-73 2 -64 -2 -108 -9 -122z m84 119 c73 -70 311 -135 426 -116 l60 10 6 -36
c13 -76 -23 -207 -62 -229 -27 -15 -68 13 -93 63 -25 53 -124 143 -172 157
-18 5 -69 9 -112 9 -112 0 -116 5 -115 134 1 93 2 99 14 71 7 -16 29 -45 48
-63z m621 -228 c-42 -75 -44 -74 -75 31 -11 39 -28 76 -36 82 -14 11 -14 13 3
19 39 13 106 50 122 68 16 17 17 14 20 -58 3 -72 1 -80 -34 -142z m-1351 182
c18 -13 57 -32 87 -42 30 -10 48 -20 40 -22 -20 -7 -25 -16 -56 -94 -15 -39
-32 -68 -40 -68 -27 0 -66 98 -69 177 -2 40 -1 73 1 73 3 0 20 -11 37 -24z
m685 -115 c-7 -2 -16 -9 -20 -15 -5 -8 -10 -8 -19 1 -8 8 -8 16 1 33 11 21 12
21 32 4 14 -14 16 -20 6 -23z m-546 -173 c20 -31 59 -40 94 -22 14 8 27 14 28
14 9 -1 10 -199 1 -271 -5 -39 -3 -72 8 -110 9 -31 18 -121 22 -209 8 -181 11
-196 115 -513 44 -133 80 -244 80 -247 0 -3 -17 24 -38 60 -103 177 -145 233
-280 379 -186 201 -197 229 -162 427 15 84 21 149 17 187 -3 32 -4 57 -3 55 2
-2 25 -28 52 -59 27 -30 73 -83 103 -118 29 -34 55 -60 58 -57 5 5 -109 148
-181 227 -28 30 -68 84 -89 120 -42 70 -41 59 -18 234 l7 50 17 -40 c10 -21
24 -46 31 -55 7 -8 19 -33 26 -55 18 -58 75 -163 115 -214 49 -62 44 -34 -9
47 -25 37 -57 97 -71 134 l-27 67 25 33 c13 18 30 56 38 83 l14 50 5 -86 c4
-56 11 -94 22 -111z m464 172 c8 0 23 -15 34 -32 17 -28 20 -51 20 -150 0
-102 -2 -118 -17 -126 -10 -5 -81 -12 -158 -16 -162 -7 -177 -2 -196 66 -15
58 -4 99 41 157 58 74 154 116 234 105 16 -2 35 -4 42 -4z m298 -17 c47 -24
91 -63 126 -112 31 -42 32 -46 25 -115 -3 -39 -7 -88 -8 -108 -1 -30 -4 -35
-14 -26 -8 6 -12 17 -9 24 3 8 0 11 -10 7 -8 -3 -22 1 -31 8 -11 10 -54 15
-150 16 -83 1 -140 6 -148 13 -21 18 -9 281 14 295 43 27 151 26 205 -2z m356
-9 c0 -33 40 -125 51 -118 5 3 9 2 9 -3 -1 -12 -91 -181 -130 -241 -53 -84
-28 -71 29 15 49 74 65 104 142 268 l33 70 7 -40 c4 -22 11 -63 17 -92 12 -57
5 -94 -28 -147 -29 -48 -148 -195 -244 -303 -21 -23 -34 -43 -28 -43 6 0 48
42 93 93 45 50 89 100 98 109 15 16 16 10 17 -80 0 -53 2 -146 5 -207 6 -150
-5 -172 -169 -340 -121 -123 -210 -237 -294 -377 -21 -34 -38 -58 -38 -54 0
10 124 370 149 435 36 90 51 169 57 306 4 90 12 146 25 183 20 56 23 120 9
192 -6 32 -4 64 6 108 8 35 12 67 9 72 -8 13 -1 13 29 -1 39 -18 73 -4 95 39
22 43 45 157 37 179 -3 8 -1 11 4 8 6 -3 10 -17 10 -31z m-1840 -196 c0 -7 29
-81 64 -165 36 -83 72 -178 81 -211 25 -97 29 -224 11 -341 -9 -57 -18 -160
-20 -230 -4 -107 -3 -116 5 -61 31 214 43 315 47 395 4 92 -12 235 -30 268 -6
11 -7 44 -3 78 6 53 9 58 25 49 10 -6 35 -10 54 -10 22 0 36 -5 36 -12 0 -16
-57 -205 -65 -218 -3 -6 -2 -10 4 -10 10 0 54 126 66 193 5 27 15 42 34 51
l26 14 -1 -172 c-2 -196 -10 -231 -99 -451 -71 -173 -88 -242 -86 -342 1 -73
-1 -83 -17 -82 -31 1 -47 14 -48 39 0 14 -13 108 -28 210 -27 184 -50 291 -69
320 -5 8 16 -12 47 -45 64 -67 64 -57 -1 23 -54 67 -73 105 -108 216 -24 78
-26 98 -20 165 9 98 71 341 87 341 4 0 8 -6 8 -12z m2585 -232 c21 -99 25
-467 7 -566 -7 -38 -12 -157 -12 -287 0 -122 -4 -223 -9 -225 -5 -2 -5 -26 0
-58 11 -68 32 -269 31 -293 -1 -32 -65 -181 -96 -225 -30 -43 -105 -106 -114
-97 -3 3 16 27 41 54 26 27 56 70 67 95 11 25 29 67 40 92 12 26 19 49 16 51
-2 3 -16 -21 -31 -54 -42 -93 -65 -136 -91 -168 l-25 -30 26 60 c29 66 57 174
49 187 -11 17 -24 -4 -24 -37 0 -44 -54 -193 -89 -245 -40 -59 -113 -105 -134
-84 -11 12 22 94 57 142 62 85 69 172 28 367 -10 50 -20 83 -23 75 -3 -8 -2
-31 2 -50 6 -24 2 -52 -11 -95 -10 -33 -22 -75 -25 -94 -11 -55 -44 -103 -69
-99 -27 4 -32 47 -17 143 7 39 17 99 22 135 6 36 28 102 50 146 38 80 39 81
80 87 23 3 47 11 53 17 8 9 2 10 -25 5 l-35 -7 -1 104 c0 119 -16 186 -77 338
-80 195 -81 203 -81 422 0 108 3 199 7 203 3 3 15 1 27 -6 36 -23 111 -294
111 -405 0 -28 7 -97 16 -155 8 -57 16 -148 17 -201 1 -53 6 -100 10 -104 12
-13 8 188 -9 342 -26 247 -4 349 120 570 25 44 48 100 52 124 l7 44 23 -70
c13 -38 30 -105 39 -148z m-1665 104 c0 -3 -9 -11 -20 -18 -18 -11 -20 -10
-20 18 0 28 2 29 20 18 11 -7 20 -15 20 -18z m344 24 c21 -8 20 -20 0 -28 -19
-7 -47 12 -38 25 6 11 16 11 38 3z m-63 -27 c34 -26 39 -54 34 -172 -7 -173
-13 -179 -175 -169 l-111 7 -30 36 c-32 39 -59 115 -59 167 0 67 34 114 95
133 46 14 227 13 246 -2z m363 -8 c78 -39 99 -131 50 -233 -43 -91 -51 -95
-197 -103 -173 -8 -167 -14 -167 171 l0 140 28 23 c24 20 38 22 134 23 90 0
115 -4 152 -21z m777 -131 c11 -43 10 -63 -14 -198 -14 -74 -14 -74 -21 -35
-15 87 -49 216 -57 221 -5 3 -9 13 -9 23 0 13 7 18 24 16 13 -2 29 1 37 6 23
15 28 11 40 -33z m-2441 -181 c0 -18 64 -225 80 -262 16 -35 28 -95 50 -245
12 -80 25 -163 30 -185 5 -22 10 -56 10 -76 0 -29 5 -38 25 -47 14 -7 32 -12
39 -12 27 0 77 -59 111 -132 35 -74 75 -265 75 -357 0 -37 -2 -41 -25 -41 -29
0 -49 33 -60 100 -4 25 -16 65 -26 89 -16 36 -21 41 -33 32 -21 -18 -29 -104
-18 -193 9 -67 17 -88 56 -150 51 -80 59 -118 24 -118 -32 0 -106 84 -141 159
-28 62 -69 190 -70 219 0 8 -4 9 -9 4 -14 -14 28 -165 68 -245 40 -80 41 -86
14 -62 -12 11 -28 20 -37 21 -20 3 -88 69 -113 110 -11 17 -31 63 -44 104 -22
64 -24 81 -16 142 4 37 6 77 3 87 -6 25 15 154 33 197 17 42 17 69 0 30 -24
-53 -30 -7 -32 214 0 118 -4 316 -8 440 -5 157 -4 220 3 210 6 -8 11 -23 11
-33z m1020 5 c19 -17 19 -18 -5 -47 l-24 -30 2 48 c1 26 3 47 5 47 1 0 11 -8
22 -18z m340 -42 c0 -9 -5 -21 -11 -27 -9 -9 -16 -6 -29 10 -16 20 -16 23 -1
43 14 19 17 20 28 5 7 -9 13 -23 13 -31z m340 4 l0 -46 -19 23 c-17 21 -17 25
-4 46 9 13 17 23 19 23 2 0 4 -21 4 -46z m-476 -7 c107 -3 104 9 108 -389 2
-180 6 -319 10 -310 4 9 7 159 8 332 0 282 2 317 18 337 15 20 29 23 148 29
l130 7 23 -29 c21 -27 23 -36 18 -119 -4 -66 -14 -114 -37 -180 -58 -165 -159
-489 -166 -535 -21 -139 -117 -208 -211 -150 -41 25 -59 53 -74 115 -19 82
-95 348 -149 523 -42 138 -50 175 -50 243 0 69 3 85 22 108 21 24 28 27 78 24
30 -2 86 -4 124 -6z m-509 -262 c17 -25 33 -45 37 -45 13 0 101 -126 125 -180
14 -30 44 -107 68 -170 24 -63 64 -164 89 -223 87 -206 155 -510 171 -757 3
-52 8 -129 11 -170 3 -41 3 -72 0 -69 -4 3 -15 51 -26 106 -24 127 -68 248
-126 349 -29 50 -52 109 -65 161 -11 45 -35 128 -55 185 -19 57 -44 132 -56
168 -27 87 -50 130 -118 225 -31 44 -64 94 -73 110 -9 17 -16 27 -17 23 -1
-19 27 -72 79 -148 79 -116 86 -132 147 -317 82 -252 97 -321 83 -402 -11 -60
-90 -302 -138 -419 -11 -26 -22 -60 -26 -77 -7 -30 -7 -29 -24 20 -10 28 -33
80 -50 117 -60 126 -101 342 -101 530 0 92 22 248 56 396 22 100 18 156 -20
250 -19 46 -37 86 -41 90 -11 11 5 -48 33 -117 21 -55 24 -75 19 -140 -3 -42
-14 -110 -25 -151 -44 -163 -50 -398 -16 -600 19 -112 34 -162 94 -296 28 -62
56 -141 63 -176 l14 -64 -62 -62 -62 -62 -35 38 c-44 49 -72 121 -110 287 -57
252 -60 352 -23 767 17 202 34 298 70 403 18 53 25 100 29 195 3 69 12 147 21
174 8 27 15 60 15 73 0 34 11 28 45 -22z m1315 -93 c11 -35 23 -107 26 -160 5
-68 16 -123 37 -182 20 -61 33 -124 43 -220 7 -74 18 -173 23 -220 6 -47 11
-169 11 -271 0 -168 -3 -201 -31 -340 -48 -241 -91 -355 -156 -411 -19 -17
-21 -16 -76 46 l-56 63 9 66 c6 36 16 83 24 104 7 21 19 54 26 73 7 19 21 43
30 52 33 32 74 177 95 339 18 132 19 254 5 330 -6 30 -11 70 -12 89 0 19 -11
72 -24 118 -34 120 -33 172 4 257 35 81 40 98 29 105 -13 8 -77 -167 -77 -208
0 -21 15 -104 32 -187 29 -137 32 -166 32 -325 0 -129 -4 -197 -18 -260 -23
-112 -53 -210 -70 -230 -20 -23 -51 -89 -66 -142 l-14 -46 -37 106 c-20 59
-57 164 -83 234 -58 163 -65 227 -36 333 77 281 156 482 214 545 26 28 69 94
80 125 9 24 10 25 -52 -57 -112 -148 -160 -261 -257 -592 -21 -72 -50 -147
-65 -170 -65 -97 -124 -274 -153 -461 -3 -16 -4 56 -2 160 4 299 49 507 175
806 34 79 88 213 122 296 59 148 63 155 133 225 39 40 80 86 91 103 l19 29 3
-29 c2 -17 12 -58 22 -93z m-1053 -207 c118 -166 190 -285 198 -330 14 -78 60
-140 120 -159 19 -6 20 -13 18 -283 -2 -213 -6 -291 -18 -333 -14 -52 -41
-171 -63 -285 -8 -39 -9 -20 -5 85 12 316 -55 696 -175 996 -33 82 -77 194
-97 249 -21 55 -43 109 -50 120 -18 28 -30 73 -17 60 6 -5 46 -59 89 -120z
m781 19 c-17 -43 -69 -169 -116 -279 -144 -341 -195 -577 -196 -892 -1 -185
-7 -220 -19 -121 -4 26 -21 102 -39 170 -32 120 -32 129 -36 365 l-3 241 31 7
c45 10 95 75 120 157 15 49 45 105 103 191 80 119 179 249 184 243 2 -1 -11
-38 -29 -82z m-88 -881 c15 -72 48 -172 110 -328 67 -168 73 -192 59 -256 -21
-102 -150 -309 -193 -309 -21 0 -115 90 -142 136 -63 108 -32 432 63 649 34
78 80 165 88 165 2 0 9 -26 15 -57z m-545 -168 c50 -138 89 -351 80 -438 -7
-80 -32 -152 -65 -194 -29 -37 -109 -103 -125 -103 -15 0 -102 126 -147 213
-28 54 -32 72 -32 137 1 52 6 85 19 110 30 59 155 411 155 439 0 11 3 27 6 36
9 23 68 -85 109 -200z m815 -582 c29 -31 30 -36 30 -123 0 -81 -2 -90 -18 -90
-10 0 -50 -20 -88 -45 -81 -52 -105 -55 -133 -17 -11 15 -21 22 -21 17 0 -6
11 -23 25 -38 32 -34 57 -30 135 23 59 40 100 57 100 42 0 -5 -11 -67 -25
-138 -14 -71 -27 -142 -30 -159 -5 -29 -5 -29 5 -5 15 34 60 251 60 289 0 26
21 51 42 51 13 0 -15 -165 -41 -243 -41 -125 -51 -190 -51 -326 0 -184 -21
-555 -46 -805 -15 -163 -18 -243 -7 -232 4 4 8 37 10 74 1 37 7 103 13 147 18
137 31 358 40 670 9 313 12 340 66 492 19 54 34 68 34 34 0 -11 15 -72 34
-138 19 -65 39 -165 46 -223 12 -114 10 -137 -43 -370 -52 -230 -90 -406 -99
-460 -15 -91 -14 -269 1 -337 8 -34 12 -65 9 -68 -3 -3 -23 5 -43 20 -31 21
-49 25 -106 25 -37 0 -70 -4 -73 -9 -4 -5 26 -8 67 -8 96 2 143 -25 180 -107
16 -35 59 -90 119 -154 92 -98 139 -162 119 -162 -6 0 -11 -7 -11 -15 0 -23
-22 -63 -37 -69 -21 -8 -63 4 -63 18 0 44 -78 138 -88 107 -2 -6 -11 -11 -19
-11 -13 0 -14 2 -2 18 13 15 12 16 -3 3 -26 -20 -22 -41 7 -41 14 0 25 5 25
11 0 15 27 -7 41 -33 13 -25 28 -108 19 -108 -4 0 -23 -3 -41 -6 -28 -6 -32
-4 -21 7 6 7 12 21 12 30 0 25 -89 142 -122 162 -37 21 -36 7 1 -20 32 -24 91
-122 91 -152 0 -36 -32 -42 -98 -20 -90 30 -130 70 -147 147 -8 34 -26 84 -40
111 -13 27 -27 69 -31 93 -3 24 -10 58 -16 77 -32 104 -36 153 -21 266 16 118
14 204 -11 424 l-15 134 25 49 c34 67 64 166 63 208 0 29 -3 24 -14 -25 -14
-61 -29 -108 -60 -179 l-16 -39 -35 58 c-46 75 -84 191 -84 252 0 60 26 262
45 360 8 40 15 75 15 80 0 17 66 -98 96 -169 55 -128 67 -220 66 -483 -1 -126
-4 -241 -7 -255 -2 -14 -11 -119 -20 -235 -8 -115 -17 -235 -19 -265 -2 -30
-1 -64 3 -75 5 -12 10 31 14 105 3 69 15 215 27 325 18 169 21 238 17 445 -4
169 -10 265 -20 310 -19 81 -70 201 -110 260 -32 48 -93 175 -108 225 -5 17
-16 75 -25 130 -9 54 -20 109 -25 122 -13 34 -3 28 30 -20 16 -24 52 -59 80
-78 28 -19 51 -42 51 -51 0 -28 102 -326 117 -345 14 -17 14 -17 8 2 -19 58
-78 247 -92 297 l-17 56 52 68 c29 37 69 101 89 142 l37 74 33 -38 c19 -22 47
-53 63 -71z m-1091 60 c8 -21 37 -74 66 -118 29 -44 57 -89 63 -100 17 -33 -7
-127 -75 -293 -19 -46 -33 -88 -31 -94 8 -24 110 241 132 343 3 14 16 30 30
37 38 17 97 73 129 122 22 33 28 38 24 20 -3 -14 -9 -47 -12 -75 -19 -135 -64
-256 -134 -359 -15 -23 -33 -54 -39 -71 -6 -16 -22 -61 -37 -100 -47 -127 -55
-211 -55 -555 0 -215 5 -354 15 -440 8 -69 15 -172 16 -230 0 -73 3 -97 9 -77
8 27 1 208 -20 457 -12 159 -12 565 1 500 23 -114 41 -176 60 -207 35 -56 37
-37 3 33 -54 112 -74 292 -45 412 25 100 117 312 137 312 3 0 3 -4 0 -9 -3 -4
10 -85 29 -179 20 -98 35 -201 35 -241 0 -79 -33 -203 -79 -297 -36 -76 -46
-111 -65 -244 -38 -257 -46 -362 -36 -450 6 -47 12 -130 14 -185 2 -55 7 -117
11 -138 7 -36 6 -39 -46 -87 -29 -27 -56 -47 -60 -45 -3 3 -11 -14 -18 -36
-15 -49 -71 -114 -122 -140 -40 -20 -104 -25 -128 -10 -19 12 -3 37 78 119 33
34 54 62 47 62 -8 0 -18 -6 -22 -12 -6 -9 -10 -5 -15 12 l-7 25 -1 -26 c-1
-14 -14 -38 -30 -53 -24 -23 -29 -25 -28 -9 2 14 -6 19 -41 21 -53 4 -68 -8
-84 -62 -14 -51 -19 -57 -38 -46 -13 8 -11 18 14 66 17 31 38 59 48 62 10 2
18 11 18 19 0 10 -6 12 -20 8 -16 -5 -12 8 25 70 25 42 41 74 35 70 -14 -9
-72 -95 -64 -95 4 0 -1 -9 -11 -20 -9 -10 -15 -26 -12 -33 3 -8 0 -20 -6 -26
-6 -6 -19 -30 -28 -53 -18 -46 -33 -58 -43 -33 -8 23 18 81 43 95 12 6 21 16
21 22 0 7 -14 -1 -32 -18 -22 -20 -29 -24 -25 -11 4 10 7 23 7 28 0 6 37 47
81 92 58 58 89 100 109 144 39 85 81 113 170 113 46 0 61 3 50 10 -25 16 -92
11 -139 -10 -24 -11 -45 -20 -47 -20 -9 0 -3 51 12 91 24 67 21 221 -9 386
-14 76 -31 172 -38 213 -6 41 -22 104 -35 140 -80 226 -81 367 -4 598 22 67
43 143 47 169 l6 47 29 -89 c48 -151 55 -208 62 -460 6 -225 35 -641 55 -800
4 -38 6 -85 4 -103 -3 -20 -1 -32 6 -32 15 0 14 56 -4 225 -22 210 -35 419
-44 725 -9 268 -10 278 -41 380 -30 100 -69 261 -70 288 0 9 5 9 23 -2 19 -13
25 -30 35 -107 15 -107 44 -229 50 -210 2 7 -3 43 -11 79 -9 37 -19 87 -22
112 -3 25 -9 58 -12 74 l-5 30 28 -18 c16 -10 41 -30 55 -43 28 -26 131 -45
142 -26 4 6 -8 10 -31 10 -38 -1 -74 14 -149 59 l-43 25 0 94 0 93 57 61 c32
34 60 61 63 61 3 0 12 -17 19 -37z m1190 -50 c-5 -32 -9 -86 -10 -121 -2 -57
-19 -95 -35 -79 -4 3 -6 45 -5 93 0 76 4 92 26 125 14 22 27 39 28 39 2 0 0
-26 -4 -57z m-1364 -11 c15 -21 21 -47 24 -109 1 -46 -1 -83 -6 -83 -5 0 -18
6 -29 14 -16 13 -19 27 -19 110 0 53 2 96 5 96 3 0 14 -13 25 -28z m1030
-2126 c4 -39 18 -80 36 -113 16 -29 29 -58 29 -64 0 -12 -66 34 -87 61 -13 16
-17 102 -6 163 8 50 20 31 28 -47z m-1085 -236 c13 -8 12 -15 -9 -54 -13 -25
-21 -52 -18 -61 7 -18 -24 -21 -53 -5 -18 9 -18 14 -5 56 21 70 46 89 85 64z"/>
<path d="M2116 6152 c-3 -5 21 -16 52 -26 31 -9 78 -28 105 -42 54 -27 61 -29
52 -14 -12 19 -202 93 -209 82z"/>
<path d="M2841 4883 c-27 -76 -56 -126 -111 -193 -52 -63 -59 -84 -11 -30 l40
44 -13 -39 c-8 -22 -28 -125 -44 -230 -41 -257 -44 -283 -33 -265 5 9 25 115
45 235 39 245 53 300 90 353 25 37 70 165 64 183 -2 5 -14 -21 -27 -58z"/>
<path d="M2752 3815 c0 -16 3 -39 8 -50 8 -18 9 -18 8 5 0 14 -4 36 -8 50 -8
24 -8 24 -8 -5z"/>
<path d="M446 3954 c-8 -21 -8 -99 0 -91 8 8 17 107 11 107 -3 0 -8 -7 -11
-16z"/>
<path d="M307 3863 c-11 -10 -8 -53 3 -53 6 0 10 14 10 30 0 31 -2 35 -13 23z"/>
<path d="M201 3755 c-3 -34 103 -254 130 -271 15 -9 10 3 -21 56 -16 27 -39
71 -50 98 -35 81 -59 127 -59 117z"/>
<path d="M2190 634 c1 -5 12 -27 25 -49 14 -22 30 -50 37 -62 13 -27 30 -31
21 -5 -6 15 -5 15 10 3 18 -14 23 -41 8 -41 -4 0 -8 -13 -7 -29 1 -16 4 -27 8
-25 13 8 48 -36 55 -67 5 -28 19 -46 29 -37 9 9 -19 74 -43 100 -43 46 -20 52
30 8 26 -23 47 -37 47 -31 0 6 -22 28 -49 48 -28 21 -50 43 -50 49 -1 13 -41
51 -41 38 0 -5 -16 16 -36 46 -41 63 -44 67 -44 54z"/>
<path d="M1058 771 c19 -34 27 -33 18 4 -4 14 -13 25 -21 25 -12 0 -11 -5 3
-29z"/>
<path d="M1122 733 c-7 -22 -12 -69 -12 -104 0 -49 -6 -74 -25 -109 l-25 -45
29 33 c32 38 43 77 34 122 -3 17 0 50 7 74 15 56 8 83 -8 29z"/>
</g>
</svg>
